<?xml version="1.0" encoding="utf-8"?>
<!-- Generator: Adobe Illustrator 24.1.2, SVG Export Plug-In . SVG Version: 6.00 Build 0)  -->
<svg version="1.1" id="Layer_1" xmlns="http://www.w3.org/2000/svg" xmlns:xlink="http://www.w3.org/1999/xlink" x="0px" y="0px"
	 viewBox="0 0 1001 754.2" style="enable-background:new 0 0 1001 754.2;" xml:space="preserve">
<style type="text/css">
	.st0{fill:#DDEAFE;}
	.st1{fill:none;stroke:#96D1EE;stroke-width:3;stroke-linecap:round;stroke-miterlimit:10;}
	.st2{fill:url(#SVGID_1_);}
	.st3{fill:#19207C;}
	.st4{fill:#293593;}
	.st5{fill:#FFFFFF;}
	.st6{fill:#E3F2FE;}
	.st7{fill:#64B5F6;}
	.st8{fill:#E3E4E3;}
	.st9{fill:#FDC665;}
	.st10{fill:#FFD741;}
	.st11{fill:#F8BD36;}
	.st12{opacity:0.41;fill:none;stroke:#FFFFFF;stroke-width:0.22;stroke-miterlimit:10;enable-background:new    ;}
	.st13{opacity:0.11;fill:#FFFFFF;enable-background:new    ;}
	.st14{opacity:7.000000e-02;fill:#231F20;enable-background:new    ;}
	.st15{fill:#FCED99;}
	.st16{fill:#80D7FE;}
	.st17{fill:#DDE4E8;}
	.st18{fill:#F6F4F4;}
	.st19{fill:#CFD4D7;}
	.st20{opacity:6.000000e-02;fill:#0061FA;enable-background:new    ;}
	.st21{fill:#0051C4;}
	.st22{fill:#FF7143;}
	.st23{opacity:0.2;enable-background:new    ;}
	.st24{fill-rule:evenodd;clip-rule:evenodd;fill:#19207C;}
	.st25{fill-rule:evenodd;clip-rule:evenodd;fill:#64B5F6;}
	.st26{opacity:0.2;fill-rule:evenodd;clip-rule:evenodd;fill:#231F20;enable-background:new    ;}
	.st27{opacity:0.1;fill-rule:evenodd;clip-rule:evenodd;fill:#231F20;enable-background:new    ;}
	.st28{fill:#336699;}
	.st29{fill-rule:evenodd;clip-rule:evenodd;fill:#80D7FE;}
	.st30{fill-rule:evenodd;clip-rule:evenodd;fill:#0056A3;}
	.st31{fill-rule:evenodd;clip-rule:evenodd;fill:#33CC99;}
	.st32{fill:#33CC99;}
	.st33{fill:#0056A3;}
	.st34{opacity:0.1;enable-background:new    ;}
	.st35{fill:#FFB5A4;}
	.st36{fill:#121E7B;}
	.st37{fill:#F2F2F2;}
	.st38{fill-rule:evenodd;clip-rule:evenodd;fill:#121E7B;}
	.st39{fill:#14AF95;}
	.st40{fill:none;stroke:#F2F2F2;stroke-width:2;stroke-linecap:round;stroke-linejoin:round;}
	.st41{fill:#1A237E;}
	.st42{fill:#ABB0FF;}
</style>
<g id="Layer_2_1_">
	<g id="Layer_1-2">
		<path class="st0" d="M773.5,695.9h-36.3c-6.2,0-11.1,5-11.1,11.2c0,6.1,5,11.1,11.1,11.1h36.3c6.2,0,11.1-5,11.1-11.2
			C784.7,700.9,779.7,695.9,773.5,695.9z"/>
		<path class="st0" d="M964.6,523h-79.4c9.4-21.8,15.9-44.8,19.4-68.3h50.8c25.2,0,45.7-18.7,45.7-41.8s-20.4-41.8-45.7-41.8h-50.8
			c-7.2-47.8-26.7-93-56.5-131h18.5c15-0.3,27-12.7,26.7-27.7c-0.3-14.6-12.1-26.4-26.7-26.7h-75.1C728,140,648.4,122.8,571.7,138.3
			H444.2c-15,0-27.2,12.2-27.2,27.2s12.2,27.2,27.2,27.2h10.1c-24.4,19.2-45.4,42.3-62.2,68.3h-68.4c-21.6-0.3-39.4,16.9-39.8,38.5
			c-0.3,21.6,16.9,39.4,38.5,39.8c0.4,0,0.8,0,1.3,0h33.4c-10.3,38.1-12.5,77.9-6.5,116.9h-41c-30,0-54.4,24.4-54.4,54.4
			c0,30,24.3,54.3,54.4,54.4H392c2.2,3.4,4.4,6.7,6.8,10c-13.2,1.8-22.4,13.9-20.7,27c1.6,12,11.8,20.9,23.9,20.9h39.8
			c16.9,14.9,35.5,27.7,55.4,38.2H374.5c-8.1,0.2-14.5,6.9-14.3,15c0.2,7.8,6.5,14,14.3,14.3h213.4c64.9,9.2,131-4.6,186.8-39
			c2.4,0.9,4.9,1.4,7.5,1.4H856c11.5,0,20.9-9.4,20.9-20.9S867.5,611,856,611h-30.3c10.8-10.9,20.8-22.6,29.7-35.1
			c1.2,0.1,2.4,0.2,3.6,0.2h105.6c16.3,0,29.4-11.9,29.4-26.5S980.8,523,964.6,523z"/>
		<path class="st0" d="M757.8,132.7h48.8c9.6-0.2,17.2-8.2,17-17.8c-0.2-9.3-7.7-16.8-17-17h-48.8c-9.6,0.2-17.2,8.2-17,17.8
			C741,125,748.5,132.5,757.8,132.7z"/>
		<line class="st1" x1="327.8" y1="737.5" x2="826.9" y2="737.5"/>
		<line class="st1" x1="159.9" y1="737.5" x2="293.9" y2="737.5"/>
		<line class="st1" x1="847.5" y1="737.5" x2="909.6" y2="737.5"/>
		<line class="st1" x1="589.2" y1="752.7" x2="738.3" y2="752.7"/>
		<line class="st1" x1="411.8" y1="752.7" x2="502.5" y2="752.7"/>
		
			<linearGradient id="SVGID_1_" gradientUnits="userSpaceOnUse" x1="47.1438" y1="780.4112" x2="786.6481" y2="780.4112" gradientTransform="matrix(1 0 0 -1 0 1007.8898)">
			<stop  offset="0" style="stop-color:#FFFFFF;stop-opacity:0"/>
			<stop  offset="0.66" style="stop-color:#D765FF;stop-opacity:0.7"/>
			<stop  offset="1" style="stop-color:#5900FF"/>
		</linearGradient>
		<path class="st2" d="M784.9,393.9c0,0,24.3-181.7-108.3-239.4c-90.1-39.2-132.1-6.1-165.4-14.8s-63.9-64.2-123-101.2
			C271-34.9,101-4.7,59.2,141C5.2,328.9,140.3,474.5,311,452.8C505.4,428,513.9,295.7,578.7,325.4s89.3,60,89.3,60L784.9,393.9z"/>
		<path class="st3" d="M180.6,396.1c-8.5,10.5-8.1,14.7,2.4,23.2c-10.4-8.5-14.7-8.1-23.2,2.4c8.5-10.5,8.1-14.7-2.4-23.2
			C167.9,407,172.1,406.6,180.6,396.1z"/>
		<path class="st4" d="M390.4,346.9c-13.5-0.2-16.6,2.8-16.8,16.2c0.3-13.5-2.7-16.6-16.2-16.8c13.5,0.2,16.6-2.8,16.8-16.2
			C374,343.6,377,346.7,390.4,346.9z"/>
		<path class="st5" d="M632.1,166.3c-12.8-4.2-16.6-2.3-20.9,10.5c4.3-12.8,2.4-16.6-10.4-20.8c12.8,4.2,16.6,2.3,20.9-10.5
			C617.4,158.3,619.3,162.1,632.1,166.3z"/>
		<path class="st6" d="M369.5,127.6c0,20.3-16.5,36.8-36.8,36.8s-36.8-16.5-36.8-36.8s16.5-36.8,36.8-36.8l0,0
			C353,90.7,369.5,107.2,369.5,127.6z"/>
		<path class="st3" d="M332.6,90.7c20.3,0,36.8,16.5,36.8,36.8s-16.5,36.8-36.8,36.8s-36.8-16.5-36.8-36.8S312.3,90.7,332.6,90.7
			L332.6,90.7 M332.6,87.5c-5.4,0-10.7,1.1-15.6,3.2c-2.4,1-4.7,2.2-6.8,3.7c-2.1,1.4-4.1,3.1-5.9,4.9s-3.4,3.8-4.9,5.9
			c-1.4,2.1-2.7,4.4-3.7,6.8s-1.8,4.9-2.3,7.5c-1.1,5.3-1.1,10.8,0,16.1c0.5,2.6,1.3,5.1,2.3,7.5s2.2,4.7,3.7,6.8
			c2.9,4.3,6.6,7.9,10.8,10.8c18.4,12.4,43.3,7.5,55.7-10.9c1.4-2.1,2.6-4.3,3.6-6.7s1.8-4.9,2.3-7.5c1.1-5.3,1.1-10.8,0-16.1
			c-0.5-2.6-1.3-5.1-2.3-7.5c-2-4.8-4.9-9.1-8.5-12.7c-1.8-1.8-3.8-3.5-6-4.9c-2.1-1.5-4.4-2.7-6.8-3.7
			C343.3,88.6,338,87.5,332.6,87.5L332.6,87.5z"/>
		<rect x="337" y="127.1" transform="matrix(0.866 -0.5 0.5 0.866 -23.5154 187.3253)" class="st7" width="1.6" height="20.9"/>
		<path class="st7" d="M332.7,125.5L332.7,125.5l-12.3-12.7c-0.7-0.8-1.8-0.9-2.6-0.2c-0.4,0.4-0.7,0.9-0.7,1.4s0.2,1,0.6,1.4
			l12.3,12.7l0.1,0.1c0.8,0.7,1.9,0.6,2.6-0.1c0.3-0.3,0.5-0.8,0.5-1.2C333.2,126.3,333,125.8,332.7,125.5z"/>
		<path class="st7" d="M351,123.8L351,123.8l-15.9,2c-0.5,0-1,0.3-1.3,0.7c-0.6,0.7-0.4,1.8,0.3,2.4l0,0c0.4,0.3,0.9,0.4,1.3,0.3
			l16-2h0.1c0.4-0.1,0.8-0.3,1-0.6c0.6-0.7,0.4-1.8-0.3-2.3C351.9,123.9,351.4,123.7,351,123.8z"/>
		<path class="st8" d="M336,128.1c0,1.6-1.3,2.8-2.8,2.8c-1.6,0-2.8-1.3-2.8-2.8c0-1.6,1.3-2.8,2.8-2.8l0,0
			C334.7,125.2,336,126.5,336,128.1z"/>
		<path class="st7" d="M333.2,125.2c1.6,0,2.8,1.3,2.8,2.8c0,1.6-1.3,2.8-2.8,2.8c-1.6,0-2.8-1.3-2.8-2.8l0,0
			C330.4,126.5,331.7,125.2,333.2,125.2 M333.2,123.1c-2.7,0-4.9,2.2-4.9,4.9c0,2.7,2.2,4.9,4.9,4.9s4.9-2.2,4.9-4.9l0,0
			C338.1,125.4,335.9,123.2,333.2,123.1z"/>
		<path class="st7" d="M333.3,101.4L333.3,101.4c-0.5,0-0.9-0.4-1-0.9v-5.6c0-0.5,0.4-1,1-1l0,0c0.5,0,0.9,0.5,0.9,1v5.6
			C334.2,101,333.8,101.4,333.3,101.4z"/>
		<path class="st7" d="M351.7,109.6L351.7,109.6c-0.3-0.4-0.3-1,0-1.3l3.9-3.9c0.4-0.3,1-0.3,1.3,0l0,0c0.4,0.4,0.4,1,0,1.3l0,0
			l-3.9,4C352.6,109.9,352,109.9,351.7,109.6z"/>
		<path class="st7" d="M358.9,128.1L358.9,128.1c0-0.5,0.5-0.9,1-0.9h5.6c0.5,0,0.9,0.4,0.9,0.9l0,0l0,0c0,0.5-0.4,0.9-0.9,0.9l0,0
			h-5.6C359.4,129,358.9,128.6,358.9,128.1z"/>
		<path class="st7" d="M351.2,145.9L351.2,145.9c0.4-0.4,1-0.4,1.3,0l0,0l4,3.9c0.4,0.4,0.4,1,0,1.3l0,0l0,0c-0.4,0.4-1,0.4-1.3,0
			l0,0l-4-3.9C350.9,146.9,350.9,146.3,351.2,145.9L351.2,145.9z"/>
		<path class="st7" d="M333.3,153.8L333.3,153.8c0.5,0,0.9,0.4,1,0.9v5.6c0,0.5-0.4,0.9-0.9,0.9l0,0c-0.5,0-0.9-0.4-1-0.9v-5.6
			C332.4,154.2,332.8,153.8,333.3,153.8L333.3,153.8z"/>
		<path class="st7" d="M314.8,146.7L314.8,146.7c0.3,0.4,0.3,1,0,1.3l-3.9,4c-0.4,0.4-1,0.4-1.3,0l0,0l0,0c-0.4-0.4-0.4-1,0-1.3l0,0
			l3.9-4C313.8,146.3,314.4,146.3,314.8,146.7L314.8,146.7z"/>
		<path class="st7" d="M314.3,109.3L314.3,109.3c-0.4,0.4-1,0.4-1.3,0l0,0l-4-3.9c-0.3-0.4-0.3-1,0-1.3l0,0c0.4-0.4,1-0.4,1.3,0l0,0
			l4,3.9C314.7,108.4,314.7,109,314.3,109.3L314.3,109.3z"/>
		<path class="st5" d="M333.4,90.8v73.7h-0.8h-1c-20.3-0.5-36.4-17.3-36-37.7c0.5-19.7,16.3-35.5,36-36H333.4L333.4,90.8z"/>
		<path class="st7" d="M332.6,87.5c-2.7,0-5.4,0.3-8.1,0.8c-7.7,1.6-14.7,5.4-20.3,10.9c-5.5,5.5-9.4,12.6-10.9,20.3
			c-1.1,5.3-1.1,10.8,0,16.1c1,5.1,3.1,10,6,14.3c1.4,2.1,3.1,4.1,4.9,5.9c5.5,5.5,12.6,9.3,20.3,10.9c2.7,0.5,5.4,0.8,8.1,0.8h0.8
			v-3.2h-0.8h-1c-20.3-0.5-36.4-17.3-36-37.7c0.5-19.7,16.3-35.5,36-36h1.8v-3.3h-0.8V87.5z"/>
		<polygon class="st7" points="333.4,128.4 333.4,131.7 332.9,130.9 331.8,128.9 333.2,128.1 		"/>
		<path class="st7" d="M332.6,125.5L332.6,125.5l-12.2-12.7c-0.6-0.8-1.8-0.9-2.6-0.3c-0.8,0.6-0.9,1.8-0.3,2.6
			c0.1,0.1,0.1,0.2,0.2,0.2L330,128l0.1,0.1c0.3,0.3,0.8,0.5,1.3,0.5c1,0,1.9-0.8,1.9-1.8C333.2,126.3,333,125.8,332.6,125.5
			L332.6,125.5z"/>
		<path class="st5" d="M333.4,125.3v5.6H333c-1.4-0.1-2.5-1.2-2.6-2.5c0-0.1,0-0.2,0-0.3c0-1.6,1.2-2.8,2.8-2.8l0,0H333.4z"/>
		<path class="st7" d="M332.5,125.3c0.2-0.1,0.5-0.1,0.7-0.1h0.2v-2.1h-0.2c-0.8,0-1.6,0.2-2.3,0.6c-2.4,1.2-3.4,4.2-2.1,6.6
			c0.8,1.6,2.5,2.7,4.4,2.7h0.2v-2.1H333c-1.4-0.1-2.5-1.2-2.6-2.5c0-0.1,0-0.2,0-0.3C330.4,126.8,331.3,125.7,332.5,125.3z"/>
		<path class="st7" d="M333.4,94v7.4h-0.1c-0.5,0-0.9-0.4-0.9-0.9l0,0V95c0-0.5,0.4-0.9,0.9-0.9L333.4,94z"/>
		<path class="st7" d="M333.4,153.8v7.4h-0.1c-0.5,0-0.9-0.4-0.9-0.9l0,0v-5.6C332.4,154.2,332.8,153.8,333.4,153.8L333.4,153.8z"/>
		<path class="st7" d="M314.7,146.7L314.7,146.7c0.4,0.4,0.4,1,0,1.3l0,0l-3.9,4c-0.4,0.3-1,0.3-1.3,0l0,0c-0.3-0.4-0.3-1,0-1.3
			l3.9-3.9C313.7,146.3,314.3,146.3,314.7,146.7L314.7,146.7z"/>
		<path class="st7" d="M314.3,109.3L314.3,109.3c-0.4,0.4-1,0.4-1.3,0l0,0l-4-3.9c-0.4-0.4-0.4-1,0-1.3l0,0l0,0c0.4-0.4,1-0.4,1.3,0
			l0,0l4,3.9C314.6,108.3,314.7,108.9,314.3,109.3L314.3,109.3z"/>
		<path class="st7" d="M333.4,86.7v1.6l0,0V86.7z"/>
		<path class="st9" d="M391.6,158.9v3.8c0,0.8-5.7,1.5-13.4,1.7c-1.4,0-2.8,0.1-4.2,0.1c-9.7,0-17.6-0.8-17.6-1.7V159h35.2V158.9z"
			/>
		<path class="st10" d="M356.5,158.9v3.8c0,0.9,7.9,1.7,17.6,1.7s17.6-0.8,17.6-1.7v-3.8H356.5z"/>
		<path class="st11" d="M391.6,159.1c0,0.9-7.9,1.7-17.6,1.7s-17.6-0.8-17.6-1.7s7.9-1.7,17.6-1.7S391.6,158.2,391.6,159.1z"/>
		<path class="st11" d="M391.6,158.9c0,0.9-7.9,1.7-17.6,1.7s-17.6-0.8-17.6-1.7s7.9-1.7,17.6-1.7S391.6,158,391.6,158.9z"/>
		<path class="st12" d="M389.9,158.9c0,0.7-7.1,1.3-15.9,1.3s-15.9-0.6-15.9-1.3s7.1-1.3,15.9-1.3S389.9,158.1,389.9,158.9z"/>
		<path class="st9" d="M389.9,154.4v3.8c0,0.8-5.7,1.5-13.4,1.7c-1.4,0-2.8,0-4.2,0c-9.7,0-17.6-0.8-17.6-1.7v-3.8H389.9z"/>
		<path class="st10" d="M354.8,154.4v3.8c0,0.9,7.9,1.7,17.6,1.7s17.6-0.8,17.6-1.7v-3.8H354.8z"/>
		<path class="st13" d="M389.9,154.6c0,1-7.9,1.7-17.6,1.7s-17.6-0.8-17.6-1.7s7.9-1.7,17.6-1.7S389.9,153.7,389.9,154.6z"/>
		<path class="st9" d="M389.9,154.4c0,0.9-7.9,1.7-17.6,1.7s-17.6-0.8-17.6-1.7s7.9-1.7,17.6-1.7S389.9,153.5,389.9,154.4z"/>
		<path class="st11" d="M388.3,154.4c0,0.7-7.1,1.3-15.9,1.3s-15.9-0.6-15.9-1.3s7.1-1.3,15.9-1.3S388.3,153.7,388.3,154.4z"/>
		<path class="st9" d="M397.9,149.9v3.8c0,0.8-5.7,1.5-13.4,1.7c-1.4,0-2.8,0.1-4.2,0.1c-9.7,0-17.6-0.8-17.6-1.7V150h35.2V149.9z"
			/>
		<path class="st10" d="M362.7,149.9v3.8c0,0.9,7.9,1.7,17.6,1.7s17.6-0.8,17.6-1.7v-3.8H362.7z"/>
		<path class="st13" d="M397.9,150.1c0,0.9-7.9,1.7-17.6,1.7s-17.6-0.8-17.6-1.7s7.9-1.7,17.6-1.7S397.9,149.1,397.9,150.1z"/>
		<path class="st11" d="M397.9,149.9c0,0.9-7.9,1.7-17.6,1.7s-17.6-0.8-17.6-1.7s7.9-1.7,17.6-1.7S397.9,148.9,397.9,149.9z"/>
		<path class="st12" d="M396.2,149.8c0,0.7-7.1,1.3-15.9,1.3s-15.9-0.6-15.9-1.3s7.1-1.3,15.9-1.3S396.2,149.1,396.2,149.8z"/>
		<path class="st9" d="M388.3,145.7v3.8c0,0.8-5.7,1.5-13.4,1.7c-1.4,0-2.8,0-4.2,0c-9.7,0-17.6-0.8-17.6-1.7v-3.8H388.3z"/>
		<path class="st10" d="M353.1,145.7v3.8c0,0.9,7.9,1.7,17.6,1.7s17.6-0.8,17.6-1.7v-3.8H353.1z"/>
		<path class="st13" d="M388.3,145.9c0,0.9-7.9,1.7-17.6,1.7s-17.6-0.8-17.6-1.7s7.9-1.7,17.6-1.7S388.3,144.9,388.3,145.9z"/>
		<path class="st11" d="M388.3,145.7c0,1-7.9,1.7-17.6,1.7s-17.6-0.8-17.6-1.7s7.9-1.7,17.6-1.7S388.3,144.7,388.3,145.7z"/>
		<path class="st12" d="M386.6,145.6c0,0.7-7.1,1.3-15.9,1.3s-15.9-0.6-15.9-1.3s7.1-1.3,15.9-1.3S386.6,144.9,386.6,145.6z"/>
		<path class="st9" d="M391.6,141v3.8c0,0.8-5.7,1.5-13.4,1.7c-1.4,0-2.8,0.1-4.2,0.1c-9.7,0-17.6-0.8-17.6-1.7V141H391.6z"/>
		<path class="st10" d="M356.5,141v3.8c0,0.9,7.9,1.7,17.6,1.7s17.6-0.8,17.6-1.7V141H356.5z"/>
		<path class="st11" d="M391.6,141.1c0,0.9-7.9,1.7-17.6,1.7s-17.6-0.8-17.6-1.7s7.9-1.7,17.6-1.7S391.6,140.2,391.6,141.1z"/>
		<path class="st12" d="M391.6,141c0,1-7.9,1.7-17.6,1.7s-17.6-0.8-17.6-1.7s7.9-1.7,17.6-1.7S391.6,140,391.6,141z"/>
		<path class="st11" d="M389.9,140.9c0,0.7-7.1,1.3-15.9,1.3s-15.9-0.6-15.9-1.3s7.1-1.3,15.9-1.3S389.9,140.2,389.9,140.9z"/>
		<path class="st9" d="M386.6,136.6v3.8c0,0.8-5.7,1.5-13.4,1.7c-1.4,0-2.8,0-4.2,0c-9.7,0-17.6-0.8-17.6-1.7v-3.8H386.6z"/>
		<path class="st10" d="M351.4,136.6v3.8c0,0.9,7.9,1.7,17.6,1.7s17.6-0.8,17.6-1.7v-3.8H351.4z"/>
		<path class="st13" d="M386.6,136.8c0,0.9-7.9,1.7-17.6,1.7s-17.6-0.8-17.6-1.7s7.9-1.7,17.6-1.7S386.6,135.9,386.6,136.8z"/>
		<path class="st11" d="M386.6,136.6c0,1-7.9,1.7-17.6,1.7s-17.6-0.8-17.6-1.7s7.9-1.7,17.6-1.7S386.6,135.7,386.6,136.6z"/>
		<path class="st12" d="M384.9,136.6c0,0.7-7.1,1.3-15.9,1.3s-15.9-0.6-15.9-1.3s7.1-1.3,15.9-1.3S384.9,135.9,384.9,136.6z"/>
		<path class="st14" d="M367.6,161.9c0,10.1-8.2,18.4-18.3,18.4s-18.4-8.2-18.4-18.3s8.2-18.4,18.3-18.4l0,0
			C359.4,143.6,367.6,151.8,367.6,161.9z"/>
		<path class="st10" d="M367,161.9c0,10.1-8.2,18.4-18.3,18.4s-18.4-8.2-18.4-18.3s8.2-18.4,18.3-18.4l0,0
			C358.8,143.6,367,151.8,367,161.9z"/>
		<path class="st11" d="M365.3,162.4c0,10.1-8.2,18.3-18.4,18.3c-10.1,0-18.4-8.2-18.4-18.4c0-10.1,8.2-18.3,18.4-18.3l0,0
			C357.1,144.1,365.3,152.3,365.3,162.4z"/>
		<path class="st15" d="M347,145c-9.6,0-17.4,7.8-17.4,17.4s7.8,17.4,17.4,17.4s17.4-7.8,17.4-17.4S356.6,145,347,145L347,145z
			 M347,179.1c-9.3,0-16.8-7.5-16.8-16.8s7.5-16.8,16.8-16.8s16.8,7.5,16.8,16.8S356.3,179.2,347,179.1
			C347,179.2,347,179.2,347,179.1L347,179.1z"/>
		<path class="st10" d="M359.5,162.4c0,6.9-5.6,12.5-12.5,12.5s-12.5-5.6-12.5-12.5s5.6-12.5,12.5-12.5l0,0
			C353.9,149.9,359.5,155.5,359.5,162.4L359.5,162.4z"/>
		<path class="st5" d="M359.2,162.4c0,6.5-5.3,11.8-11.8,11.8s-11.8-5.3-11.8-11.8s5.3-11.8,11.8-11.8l0,0
			C353.9,150.6,359.2,155.9,359.2,162.4z"/>
		<path class="st10" d="M346,168.6c-1.4-0.1-2.7-0.5-3.9-1.1l0.1-3.1c0.7,0.4,1.5,0.7,2.3,1c0.7,0.3,1.5,0.4,2.2,0.5
			c0.4,0,0.8,0,1.2-0.1c0.2-0.1,0.4-0.4,0.4-0.6c0-0.2-0.1-0.4-0.3-0.5c-0.3-0.2-0.6-0.4-0.9-0.5c-0.4-0.2-1-0.4-1.7-0.7
			s-1.3-0.6-1.9-1.1c-0.4-0.3-0.8-0.8-1-1.3s-0.3-1.1-0.3-1.7c0-0.9,0.4-1.8,1.1-2.4c0.9-0.6,2-1,3-1l0.1-2.1l2,0.1l-0.1,2.1
			c1.3,0.1,2.6,0.5,3.8,1.1l-1.3,2.7c-1.1-0.6-2.3-0.9-3.5-1c-0.4,0-0.7,0-1.1,0.1c-0.2,0.1-0.3,0.3-0.3,0.5s0.1,0.4,0.2,0.5
			c0.2,0.2,0.5,0.4,0.8,0.5c0.5,0.2,1,0.5,1.5,0.6c1,0.4,2,1,2.8,1.7c0.6,0.6,0.8,1.5,0.8,2.3c0,1-0.4,1.9-1.1,2.5
			c-0.8,0.7-1.9,1.1-3,1.1l-0.1,2.5l-2-0.1L346,168.6z"/>
		<path class="st6" d="M342.2,208.8c-0.4,0.2-0.8,0.4-1.2,0.6c-0.4,0.2-0.5,0.6-0.4,1c0,0.1,0.1,0.2,0.2,0.2c0.6,0.6,1,1.4,1.2,2.2
			c0.3,1.4-0.3,2.9-1.5,3.8c-0.5,0.4-1,0.8-1.6,1c-0.5,0.2-0.7,0.7-0.5,1.2c0.1,0.1,0.1,0.2,0.2,0.3c1.1,0.9,1.5,2.5,0.9,3.8
			c-0.4,1.2-1.3,2.1-2.4,2.8c-0.2,0.1-0.3,0.1-0.5,0.2c-0.4,0.1-0.6,0.4-0.6,0.7s0.1,0.6,0.3,0.8c1.2,0.9,1.5,2.5,0.9,3.8
			c-0.4,0.9-1,1.6-1.8,2.2c-0.6,0.4-1.2,0.7-1.9,1c-0.6,0.2-1.2,0.4-1.9,0.5c-16.8,3.4-28.6-1-30.1-1.6c-0.5-0.3-1.1-0.6-1.6-0.8
			l-0.4-0.1v-25.1l1.9-1.3c0.1,0,0.1-0.1,0.2-0.1l0.1-0.1c3.3-4.2,5.5-8.7,8-13.4c1.7-3.2,2.1-9.9,2.1-12.5c0-1.5,1.2-2.7,2.7-2.7
			c0,0,0,0,0.1,0c0.7,0,1.5,0.1,2.2,0.3c0.8,0.3,1.4,1.3,2,2.5c0.8,1.8,1.5,3.6,2,5.5c0.2,0.7,0.4,1.4,0.5,2.1
			c0.1,0.5,0.1,1.1,0,1.6c0,0.6-0.1,1.2-0.1,1.8c-0.1,1.2-0.3,2.4-0.5,3.6s-0.5,2.6-0.7,3.8l0,0c0,0.1,0,0.2,0,0.3
			c-0.4,1.6,1.3,2.6,2.2,3c0.5,0.1,1.1,0.2,1.6,0.2c5.4,0,14.4,0,15.5,0c0.7,0,1.5,0,2.2,0c1.4,0.1,2.6,1,2.9,2.4
			C344.6,206,343.8,207.9,342.2,208.8z"/>
		<path class="st16" d="M299.6,234c0,1.3-1,2.4-2.3,2.4l0,0h-8.6c-1.3,0-2.3-1.1-2.3-2.4l0,0v-28.8c0-1.3,1-2.3,2.3-2.4h8.6
			c1.3,0,2.3,1,2.3,2.3l0,0V234z"/>
		<path class="st17" d="M291.3,225.3c-0.1,0-0.2,0-0.2,0.1v0.7c0,0,0.1,0.1,0.2,0.1s0.2,0,0.2-0.1v-0.7
			C291.5,225.4,291.4,225.3,291.3,225.3z"/>
		<path class="st17" d="M291.3,223.5c-0.1,0-0.2,0-0.2,0.1v0.7c0,0,0.1,0.1,0.2,0.1s0.2,0,0.2-0.1v-0.7
			C291.5,223.5,291.4,223.5,291.3,223.5z"/>
		<path class="st17" d="M291.3,221.6c-0.1,0-0.2,0-0.2,0.1v0.7c0,0,0.1,0.1,0.2,0.1s0.2,0,0.2-0.1v-0.7
			C291.5,221.7,291.4,221.6,291.3,221.6z"/>
		<path class="st17" d="M291.3,219.7c-0.1,0-0.2,0-0.2,0.1v0.7c0,0,0.1,0.1,0.2,0.1s0.2,0,0.2-0.1v-0.7
			C291.5,219.8,291.4,219.7,291.3,219.7z"/>
		<path class="st17" d="M291.3,230.9c-0.1,0-0.2,0-0.2,0.1v0.7c0,0,0.1,0.1,0.2,0.1s0.2,0,0.2-0.1V231
			C291.5,231,291.4,230.9,291.3,230.9z"/>
		<path class="st17" d="M291.3,227.2c-0.1,0-0.2,0-0.2,0.1v0.7c0,0,0.1,0.1,0.2,0.1s0.2,0,0.2-0.1v-0.7
			C291.5,227.3,291.4,227.2,291.3,227.2z"/>
		<path class="st17" d="M291.3,229.1c-0.1,0-0.2,0-0.2,0.1v0.7c0,0,0.1,0.1,0.2,0.1s0.2,0,0.2-0.1v-0.7
			C291.5,229.2,291.4,229.1,291.3,229.1z"/>
		<path class="st17" d="M291.3,208.5c-0.1,0-0.2,0-0.2,0.1v0.7c0,0,0.1,0.1,0.2,0.1s0.2,0,0.2-0.1v-0.7
			C291.5,208.6,291.4,208.5,291.3,208.5z"/>
		<path class="st17" d="M291.3,206.7c-0.1,0-0.2,0-0.2,0.1v0.7c0,0,0.1,0.1,0.2,0.1s0.2,0,0.2-0.1v-0.7
			C291.5,206.7,291.4,206.7,291.3,206.7z"/>
		<path class="st17" d="M291.3,204.8c-0.1,0-0.2,0-0.2,0.1v0.7c0,0,0.1,0.1,0.2,0.1s0.2,0,0.2-0.1v-0.7
			C291.5,204.9,291.4,204.8,291.3,204.8z"/>
		<path class="st17" d="M291.3,210.4c-0.1,0-0.2,0-0.2,0.1v0.7c0,0,0.1,0.1,0.2,0.1s0.2,0,0.2-0.1v-0.7
			C291.5,210.5,291.4,210.4,291.3,210.4z"/>
		<path class="st17" d="M291.3,214.1c-0.1,0-0.2,0-0.2,0.1v0.7c0,0,0.1,0.1,0.2,0.1s0.2,0,0.2-0.1v-0.7
			C291.5,214.2,291.4,214.1,291.3,214.1z"/>
		<path class="st17" d="M291.3,212.3c-0.1,0-0.2,0-0.2,0.1v0.7c0,0.1,0.1,0.1,0.2,0.1s0.2,0,0.2-0.1v-0.7
			C291.5,212.3,291.4,212.3,291.3,212.3z"/>
		<path class="st17" d="M291.3,216c-0.1,0-0.2,0-0.2,0.1v0.7c0,0,0.1,0.1,0.2,0.1s0.2,0,0.2-0.1v-0.7
			C291.5,216.1,291.4,216,291.3,216z"/>
		<path class="st17" d="M291.3,217.9c-0.1,0-0.2,0-0.2,0.1v0.7c0,0,0.1,0.1,0.2,0.1s0.2,0,0.2-0.1V218
			C291.5,217.9,291.4,217.9,291.3,217.9z"/>
		<path class="st17" d="M293.3,232.2c0,1.1-0.9,2-2,2s-2-0.9-2-2s0.9-2,2-2S293.3,231.1,293.3,232.2z"/>
		<path class="st18" d="M342.2,208.7c-0.4,0.2-0.8,0.4-1.2,0.5c-0.4,0.2-0.5,0.6-0.4,1c0,0.1,0.1,0.2,0.2,0.2c0.6,0.6,1,1.4,1.2,2.2
			c0.3,1.4-0.3,2.9-1.5,3.8c-0.5,0.4-1,0.8-1.6,1c-0.2,0.1-0.3,0.2-0.4,0.4h-39v-10.7l0,0l1.8-1.3l0.2-0.1l0.1-0.1
			c3.3-4.2,5.5-8.7,8-13.4c1.7-3.2,2.1-10,2.1-12.5c0-1.5,1.2-2.7,2.7-2.7c0,0,0,0,0.1,0c0.7,0,1.5,0.1,2.2,0.3
			c0.8,0.3,1.4,1.3,2,2.5c0.8,1.7,1.5,3.6,2,5.4c0.2,0.7,0.4,1.4,0.5,2.1c0,0.5,0,1.1,0,1.6c0,0.6-0.1,1.2-0.1,1.8
			c-0.1,1.2-0.3,2.4-0.5,3.6s-0.5,2.6-0.7,3.8l0,0c0,0.1,0,0.2,0,0.3c-0.4,1.6,1.3,2.6,2.2,3c0.5,0.1,1.1,0.2,1.6,0.2H339
			c0.7,0,1.5,0,2.2,0c1.4,0.1,2.6,1.1,2.9,2.4C344.5,205.9,343.7,207.7,342.2,208.7z"/>
		<path class="st7" d="M299.6,205.1v12.7h-13.2v-12.7c-0.1-1.2,0.9-2.2,2.1-2.3h0.1h8.6C298.5,202.8,299.6,203.8,299.6,205.1
			L299.6,205.1z"/>
		<path class="st19" d="M291.3,208.4c-0.1,0-0.2,0-0.2,0.1v0.7c0,0,0.1,0.1,0.2,0.1s0.2,0,0.2-0.1v-0.7
			C291.5,208.5,291.4,208.4,291.3,208.4z"/>
		<path class="st19" d="M291.3,206.5c-0.1,0-0.2,0-0.2,0.1v0.7c0,0,0.1,0.1,0.2,0.1s0.2,0,0.2-0.1v-0.7
			C291.5,206.6,291.4,206.5,291.3,206.5z"/>
		<path class="st19" d="M291.3,204.7c-0.1,0-0.2,0-0.2,0.1v0.7c0,0,0.1,0.1,0.2,0.1s0.2,0,0.2-0.1v-0.7
			C291.5,204.7,291.4,204.7,291.3,204.7z"/>
		<path class="st19" d="M291.3,210.3c-0.1,0-0.2,0-0.2,0.1v0.7c0,0,0.1,0.1,0.2,0.1s0.2,0,0.2-0.1v-0.7
			C291.5,210.3,291.4,210.3,291.3,210.3z"/>
		<path class="st19" d="M291.3,214c-0.1,0-0.2,0-0.2,0.1v0.7c0,0,0.1,0.1,0.2,0.1s0.2,0,0.2-0.1v-0.7
			C291.5,214.1,291.4,214,291.3,214z"/>
		<path class="st19" d="M291.3,212.1c-0.1,0-0.2,0-0.2,0.1v0.7c0,0,0.1,0.1,0.2,0.1s0.2,0,0.2-0.1v-0.7
			C291.5,212.2,291.4,212.1,291.3,212.1z"/>
		<path class="st19" d="M291.3,215.9c-0.1,0-0.2,0-0.2,0.1v0.7c0,0,0.1,0.1,0.2,0.1s0.2,0,0.2-0.1V216
			C291.5,215.9,291.4,215.9,291.3,215.9z"/>
		<path class="st19" d="M291.5,217.8L291.5,217.8h-0.4l0,0c0,0,0.1-0.1,0.2-0.1S291.5,217.8,291.5,217.8z"/>
		<polygon class="st7" points="257.1,101.5 171.6,87.8 213.9,143.6 230.3,121.4 235.1,127.9 230.6,107.7 		"/>
		<polygon class="st6" points="229.9,107.4 171.6,87.8 230.3,121.4 235.1,127.9 230.6,107.7 		"/>
		<polygon class="st3" points="230.3,121.4 228.5,123.8 235.1,127.9 		"/>
		<path class="st18" d="M583.7,194.5v47.2c0,2.5-1.9,4.5-4.4,4.6h-52.8c-2.6,0-4.7-2-4.9-4.6v-47.2c0.2-2.6,2.3-4.6,4.9-4.7h52.8
			C581.8,189.9,583.8,192,583.7,194.5z"/>
		<path class="st14" d="M587.2,187.9v9c0,1.9-1.2,3.7-3,4.3l-0.4,0.1v2H522v-2c-2-0.5-3.4-2.4-3.4-4.4v-9c0-2.5,2-4.6,4.6-4.6h59.4
			C585.1,183.3,587.2,185.3,587.2,187.9L587.2,187.9z"/>
		<path class="st18" d="M587.2,187.9v9c0,1.9-1.2,3.7-3,4.3l-0.4,0.1c-0.4,0.1-0.8,0.2-1.2,0.1h-59.5c-0.3,0-0.5,0-0.8-0.1l-0.4-0.1
			c-2-0.5-3.4-2.4-3.4-4.4v-9c0-2.5,2-4.6,4.6-4.6h59.4C585.2,183.3,587.2,185.4,587.2,187.9z"/>
		<rect x="549.4" y="183.3" class="st16" width="7.4" height="62.5"/>
		<rect x="549.4" y="201.4" class="st7" width="7.4" height="44.8"/>
		<rect x="521.6" y="211.1" class="st7" width="62.2" height="7.4"/>
		<rect x="521.6" y="211.1" class="st7" width="62.2" height="7.4"/>
		<path class="st7" d="M550.4,180.2l-12.4-8.9c0,0-7.4-6-9.2,1.2c0,0-2.4,4.1-1.4,10.8h24.4C550.9,182.5,550.4,181.4,550.4,180.2z"
			/>
		<polygon class="st16" points="535.1,169.6 542.6,160.8 550.4,178.7 550.8,181.1 548.5,179.8 		"/>
		<path class="st7" d="M556.6,180.2l12.5-8.9c0,0,7.4-6,9.2,1.2c0,0,2.4,4.1,1.4,10.8h-24.4C556.2,182.5,556.7,181.4,556.6,180.2z"
			/>
		<polygon class="st16" points="572,169.6 564.5,160.8 556.7,178.7 556.2,181.1 558.6,179.8 		"/>
		<path class="st16" d="M543.6,183.4h0.5l0,0c0-0.3-0.2-0.5-0.5-0.5H537c-0.3,0-0.6,0.3-0.6,0.6l-1.9,13.7c0,0.2,0.1,0.4,0.3,0.4
			c0.1,0,0.2,0,0.3-0.1l2.3-1c0.4-0.1,0.8-0.1,1.2,0l2.6,1c0.2,0.1,0.4,0,0.5-0.2c0-0.1,0.1-0.2,0-0.2L543.6,183.4z"/>
		<path class="st16" d="M561.9,183.4h-0.5l0,0c0-0.3,0.2-0.5,0.5-0.5h6.6c0.4,0,0.6,0.3,0.6,0.6l0,0l2.3,9.8c0,0.2-0.1,0.4-0.4,0.4
			c-0.1,0-0.2,0-0.2,0l-2.3-1c-0.4-0.1-0.8-0.1-1.2,0l-2.6,1c-0.2,0.1-0.4,0-0.5-0.2c0-0.1-0.1-0.2,0-0.2L561.9,183.4z"/>
		<path class="st16" d="M550.3,176.8h6.1c0.7,0,1.2,0.6,1.2,1.2v4.1c0,0.7-0.6,1.2-1.2,1.2h-6.1c-0.7,0-1.2-0.6-1.2-1.2V178
			C549,177.4,549.6,176.8,550.3,176.8z"/>
		<path class="st7" d="M429.6,190.6c-0.4,0-0.8-0.2-1.1-0.6c-0.2-0.3-0.3-0.6-0.3-1v-2c-1.1-0.2-2.2-0.6-3.2-1.2l-1.5,1.4
			c-0.3,0.3-0.7,0.5-1.1,0.5s-0.8-0.2-1.1-0.4l-3-2.9c-0.6-0.6-0.7-1.6-0.1-2.2l1.4-1.4c-0.6-0.9-1.1-2-1.4-3.1l-2,0.1
			c-0.8,0-1.4-0.6-1.5-1.4v-0.1l-0.1-4.2c-0.1-0.7,0.5-1.4,1.2-1.5c0.1,0,0.1,0,0.2,0h2c0.2-1.1,0.6-2.2,1.2-3.2l-1.4-1.4
			c-0.6-0.6-0.6-1.6,0-2.2l2.9-3.1c0.6-0.6,1.6-0.6,2.2-0.1l1.5,1.4c1-0.6,2.1-1.1,3.2-1.4v-1.9c-0.1-0.7,0.4-1.4,1.1-1.5
			c0.1,0,0.1,0,0.2,0l4.1-0.1c0.4,0,0.8,0.1,1.1,0.4c0.3,0.3,0.5,0.7,0.5,1.1v1.9c1.1,0.2,2.1,0.6,3.1,1.2l1.3-1.4
			c0.6-0.6,1.6-0.7,2.2-0.1l3,2.9c0.3,0.3,0.5,0.7,0.5,1.1c0,0.4-0.1,0.8-0.4,1.1l-1.4,1.5c0.6,1,1.1,2,1.4,3.1l1.9-0.1
			c0.4,0,0.8,0.1,1.1,0.3c0.4,0.2,0.6,0.6,0.6,1.1l0.1,4.2c0,0.9-0.8,1.6-1.7,1.6l-2,0.1c-0.3,1.1-0.7,2.1-1.2,3.1l1.4,1.4
			c0.3,0.3,0.5,0.7,0.5,1.1c0,0.4-0.1,0.8-0.4,1.1l-2.9,3c-0.6,0.6-1.6,0.7-2.2,0.1l0,0l-1.4-1.4c-0.9,0.6-1.9,1.1-3,1.4v1.9
			c0,0.4-0.2,0.8-0.4,1.1c-0.3,0.3-0.7,0.5-1.1,0.5L429.6,190.6L429.6,190.6z M424.8,184.4l0.4,0.2c1.1,0.7,2.4,1.1,3.7,1.4l0.5,0.1
			l0.1,2.9c0,0.1,0,0.3,0.1,0.4c0,0,0,0,0.1,0l4.2-0.1c0.1,0,0.2-0.1,0.3-0.1c0.1-0.1,0.1-0.2,0.1-0.3l-0.1-2.9l0.5-0.1
			c1.3-0.3,2.5-0.8,3.5-1.6l1-0.7l-0.1,0.9l1.6,1.5c0.1,0.1,0.2,0.1,0.3,0.1c0.1,0,0.2-0.1,0.3-0.1l2.9-3c0.1-0.1,0.1-0.2,0.1-0.3
			s0-0.2-0.1-0.3l-2.1-2l0.2-0.4c0.6-1.1,1.1-2.4,1.4-3.7l0.1-0.4l2.9-0.1c0.2,0,0.5-0.2,0.5-0.4l-0.1-4.2c0,0,0-0.1-0.1-0.1
			c-0.1-0.1-0.3-0.1-0.4-0.1l-2.9,0.1l-0.1-0.5c-0.3-1.3-0.9-2.5-1.6-3.6l-0.1-0.2l0.1-0.4l1.8-1.9c0.1-0.1,0.1-0.2,0.1-0.3
			s0-0.2-0.1-0.3l-3-2.9c-0.1-0.1-0.4-0.1-0.5,0l-2,2l-0.4-0.2c-1.1-0.7-2.3-1.1-3.6-1.4l-0.5-0.1l-0.1-2.9c0-0.1,0-0.2-0.1-0.2
			c-0.1-0.1-0.2-0.1-0.3-0.1l-4.2,0.1H429c0,0.1,0,0.2,0,0.3l0.1,2.9l-0.5,0.1c-1.3,0.3-2.5,0.8-3.6,1.6l-0.2,0.1l-0.5-0.1l-1.9-1.8
			c-0.1-0.1-0.2-0.1-0.3-0.1c-0.1,0-0.2,0-0.3,0.1l-2.9,3c-0.1,0.1-0.1,0.2-0.1,0.3s0,0.2,0.1,0.3l2.1,2.1l-0.2,0.4
			c-0.7,1.1-1.2,2.4-1.4,3.7l-0.1,0.5l-2.9,0.1c-0.2,0-0.2,0-0.2,0.3l0.1,4.2c0,0.3,0.2,0.3,0.3,0.3l2.9-0.1l0.1,0.5
			c0.3,1.3,0.8,2.5,1.6,3.6l0.2,0.2l-0.1,0.4l-1.8,1.9c-0.1,0.2-0.1,0.4,0,0.5l3,2.9c0.1,0.1,0.2,0.1,0.3,0.1c0.1,0,0.2-0.1,0.3-0.1
			l0,0L424.8,184.4z M431.3,180.4c-0.8,0-1.6-0.1-2.3-0.4l-0.2-0.1l-0.2-0.1c-0.2-0.1-0.4-0.2-0.6-0.3l-0.3-0.2l-0.3-0.2l-0.1-0.1
			c-0.2-0.2-0.5-0.4-0.7-0.6c-0.2-0.2-0.4-0.4-0.6-0.7c-0.1-0.1-0.1-0.2-0.2-0.3c-0.2-0.3-0.4-0.6-0.5-1c-0.4-0.8-0.6-1.7-0.6-2.6
			c0-1.9,0.7-3.7,2-5l0.4-0.3l0.1-0.1l0.3-0.2c0.3-0.2,0.5-0.3,0.8-0.5l0.3-0.1c1.8-0.8,3.8-0.8,5.6,0.1l0.3,0.1l0.4,0.2l0.3,0.2
			l0.1,0.1l0.3,0.2l0.4,0.3l0.2,0.2c0.2,0.2,0.4,0.4,0.5,0.6l0.2,0.3l0.2,0.3c0.1,0.1,0.2,0.3,0.2,0.4c0.5,0.9,0.7,1.9,0.7,2.9
			c0,0.6,0,1.1-0.2,1.7l0,0c0,0.1,0,0.2-0.1,0.3s-0.1,0.3-0.2,0.5s-0.1,0.2-0.1,0.3l-0.1,0.2l-0.2,0.4l-0.2,0.3l-0.1,0.2
			c0,0.1-0.1,0.1-0.1,0.2l-0.1,0.1l-0.2,0.3l-0.1,0.1l-0.2,0.2l-0.1,0.1c-0.1,0.2-0.3,0.3-0.5,0.4l-0.1,0.1l-0.3,0.2
			c-0.1,0.1-0.2,0.1-0.3,0.2l-0.1,0.1l-0.3,0.2C433.5,180.1,432.4,180.4,431.3,180.4L431.3,180.4z M431.3,168.3h-0.1
			c-0.7,0-1.4,0.2-2.1,0.5l-0.3,0.1c-0.2,0.1-0.5,0.3-0.7,0.4l-0.2,0.2l-0.1,0.1l-0.3,0.3c-1.1,1.1-1.7,2.5-1.7,4.1
			c0,0.7,0.2,1.5,0.5,2.1c0.1,0.3,0.3,0.5,0.5,0.8c0.1,0.1,0.1,0.2,0.2,0.3c0.2,0.2,0.3,0.4,0.5,0.6c0.2,0.2,0.4,0.3,0.6,0.5
			l0.1,0.1l0.2,0.1l0.2,0.1c0.1,0.1,0.3,0.2,0.5,0.2l0.2,0.1l0.2,0.1c1.5,0.6,3.1,0.4,4.5-0.3l0.2-0.1l0.1-0.1l0.2-0.1l0.2-0.1
			l0.1-0.1c0.1-0.1,0.3-0.2,0.4-0.4l0.1-0.1c0.1-0.1,0.1-0.1,0.2-0.2l0.1-0.1l0.2-0.2l0.1-0.1l0.1-0.1l0.1-0.2
			c0-0.1,0.1-0.2,0.1-0.2c0-0.1,0.1-0.2,0.2-0.3l0.1-0.2c0-0.1,0.1-0.2,0.1-0.3l0.1-0.4c0-0.1,0-0.2,0.1-0.3l0,0
			c0.1-0.4,0.1-0.9,0.1-1.4c0-0.8-0.2-1.6-0.6-2.3c-0.1-0.1-0.1-0.2-0.2-0.4l-0.1-0.2l-0.1-0.2c-0.1-0.2-0.3-0.3-0.4-0.5l-0.2-0.2
			l-0.3-0.3c-0.1-0.1-0.1-0.1-0.2-0.2l-0.1-0.1l-0.2-0.1c-0.1-0.1-0.2-0.1-0.3-0.2c-0.1,0-0.2-0.1-0.2-0.1
			C432.9,168.5,432.1,168.3,431.3,168.3L431.3,168.3z"/>
		<path class="st7" d="M743.8,277.3c-0.2,0-0.5-0.1-0.6-0.3c-0.1-0.2-0.2-0.4-0.2-0.6v-1.1c-0.7-0.1-1.3-0.4-1.9-0.7l-0.8,0.8
			c-0.2,0.2-0.4,0.3-0.6,0.3c-0.2,0-0.5-0.1-0.7-0.3l-1.8-1.7c-0.4-0.4-0.4-0.9,0-1.3l0,0l0.8-0.8c-0.3-0.5-0.6-1.1-0.8-1.8h-1.1
			c-0.5,0-0.8-0.3-0.9-0.8c0,0,0,0,0-0.1l-0.1-2.4c0-0.4,0.3-0.8,0.7-0.9h0.1h1.1c0.1-0.6,0.4-1.3,0.7-1.8L737,263
			c-0.4-0.3-0.4-0.9,0-1.3l0,0l1.7-1.8c0.2-0.2,0.4-0.3,0.6-0.3c0.2,0,0.5,0.1,0.7,0.3l0.9,0.8c0.6-0.4,1.2-0.6,1.8-0.8v-1.1
			c-0.1-0.4,0.2-0.8,0.6-0.9h0.1l2.4-0.1c0.2,0,0.5,0.1,0.7,0.2c0.2,0.2,0.3,0.4,0.3,0.6v1.1c0.6,0.1,1.2,0.4,1.8,0.7l0.8-0.8
			c0.4-0.4,0.9-0.4,1.3,0l1.8,1.7c0.2,0.2,0.3,0.4,0.3,0.6s-0.1,0.5-0.3,0.6l-0.8,0.8c0.4,0.6,0.6,1.2,0.8,1.8h1.1
			c0.2,0,0.4,0.1,0.6,0.2c0.2,0.1,0.4,0.4,0.4,0.6l0.1,2.4c0,0.5-0.5,0.9-1,0.9h-1.1c-0.2,0.6-0.4,1.2-0.7,1.8l0.8,0.8
			c0.4,0.4,0.4,0.9,0,1.3l-1.6,1.8c-0.2,0.2-0.4,0.3-0.6,0.3c-0.2,0-0.5-0.1-0.6-0.2l-0.8-0.8c-0.5,0.3-1.1,0.6-1.7,0.8v1.1
			c0,0.5-0.4,1-0.9,1L743.8,277.3L743.8,277.3z M741,273.7l0.2,0.1c0.7,0.4,1.4,0.7,2.2,0.8h0.3v1.7c0,0.1,0,0.1,0,0.2l0,0l2.4-0.1
			c0.1,0,0.1,0,0.2-0.1c0,0,0.1-0.1,0.1-0.2v-1.7l0.3-0.1c0.7-0.2,1.4-0.5,2-0.9l0.6-0.4v0.5l0.9,0.9c0,0,0.1,0.1,0.2,0.1
			c0.1,0,0.1,0,0.2-0.1l1.7-1.8c0,0,0.1-0.1,0.1-0.2s0-0.1-0.1-0.1l-1.1-1.1l0.1-0.2c0.4-0.7,0.6-1.4,0.8-2.1l0.1-0.3h1.7
			c0.1,0,0.3-0.1,0.3-0.2l-0.1-2.4c0,0,0,0,0-0.1c-0.1,0-0.2-0.1-0.3-0.1h-1.7l-0.1-0.3c-0.2-0.7-0.5-1.5-0.9-2.1l-0.1-0.1V263
			l1-1.1c0.1,0,0.1-0.1,0.1-0.2s0-0.1-0.1-0.2l-1.8-1.7c-0.1-0.1-0.2-0.1-0.3,0l-1.1,1.2l-0.2-0.1c-0.6-0.4-1.3-0.7-2.1-0.8h-0.3
			v-1.7c0,0,0-0.1-0.1-0.1s-0.1-0.1-0.2-0.1l-2.4,0.1l0,0c0,0.1,0,0.1,0,0.2v1.7l-0.3,0.1c-0.8,0.2-1.5,0.5-2.1,0.9l-0.1,0.1h-0.3
			l-1.1-1c0,0-0.1-0.1-0.2-0.1c-0.1,0-0.1,0-0.2,0.1l-1.7,1.8l-0.1,0.1c0,0.1,0,0.1,0.1,0.1l1.2,1.2l-0.1,0.2
			c-0.4,0.7-0.7,1.4-0.8,2.1v0.3h-1.7c-0.1,0-0.1,0-0.1,0.1v2.4c0,0.2,0.1,0.2,0.1,0.2h1.7l0.1,0.3c0.2,0.7,0.5,1.4,0.9,2l0.1,0.1
			l-0.1,0.3l-1,1.1c-0.1,0.1-0.1,0.2,0,0.3l1.8,1.7c0,0,0.1,0.1,0.2,0.1c0.1,0,0.1,0,0.2-0.1l0,0L741,273.7z M744.8,271.4
			c-0.5,0-0.9-0.1-1.3-0.2h-0.1h-0.1c-0.1,0-0.2-0.1-0.3-0.2l-0.2-0.1l-0.2-0.1l-0.1-0.1c-0.1-0.1-0.3-0.2-0.4-0.4
			c-0.1-0.1-0.2-0.3-0.3-0.4l-0.1-0.2c-0.1-0.2-0.2-0.4-0.3-0.6c-0.2-0.5-0.3-1-0.3-1.5c0-1.1,0.4-2.1,1.2-2.9l0.2-0.2h0.1l0.1-0.1
			c0.2-0.1,0.3-0.2,0.5-0.3l0.2-0.1c1-0.5,2.2-0.5,3.2,0l0.2,0.1c0.1,0,0.2,0.1,0.2,0.1l0.2,0.1h0.1l0.1,0.1l0.2,0.2l0.1,0.1
			c0.1,0.1,0.2,0.2,0.3,0.4l0.1,0.1c0,0.1,0.1,0.1,0.1,0.2s0.1,0.2,0.1,0.2c0.3,0.5,0.4,1.1,0.4,1.6c0,0.3,0,0.7-0.1,1l0,0
			c0,0.1,0,0.1,0,0.2l-0.1,0.3c0,0.1,0,0.1-0.1,0.2v0.1c0,0.1-0.1,0.1-0.1,0.2l-0.1,0.2l-0.1,0.1l-0.1,0.1l-0.1,0.1l-0.1,0.1
			l-0.1,0.1l-0.1,0.1l-0.1,0.1c-0.1,0.1-0.2,0.2-0.3,0.3l-0.1,0.1l-0.2,0.1l-0.2,0.1h-0.1l-0.2,0.1
			C745.9,271.1,745.3,271.2,744.8,271.4L744.8,271.4z M744.8,264.4L744.8,264.4c-0.5,0-0.9,0.1-1.3,0.3l-0.1,0.1L743,265l-0.1,0.1
			c0,0,0,0-0.1,0l-0.2,0.2c-0.6,0.6-1,1.5-1,2.4c0,0.4,0.1,0.8,0.3,1.2c0.1,0.2,0.2,0.3,0.3,0.5l0.1,0.1c0.1,0.1,0.2,0.2,0.3,0.3
			l0.3,0.3h0.1l0.1,0.1l0.1,0.1l0.3,0.1h0.1h0.1c0.4,0.1,0.8,0.2,1.2,0.2c0.5,0,1-0.1,1.4-0.4l0.1-0.1h0.1l0.1-0.1l0.1-0.1h0.1
			l0.2-0.2v-0.1l0.1-0.1v-0.1l0.1-0.1v-0.1l0.1-0.1l0.1-0.1l0.1-0.1c0-0.1,0.1-0.1,0.1-0.2v-0.1l0.1-0.1l0.1-0.2v-0.1l0,0
			c0.1-0.3,0.1-0.5,0.1-0.8c0-0.5-0.1-0.9-0.3-1.4c0-0.1-0.1-0.1-0.1-0.2c0,0,0-0.1-0.1-0.1l-0.1-0.1l-0.3-0.3l-0.1-0.1l-0.2-0.1
			l-0.1-0.1h-0.1l-0.1-0.1l-0.2-0.1l-0.1-0.1C745.6,264.6,745.2,264.4,744.8,264.4L744.8,264.4z"/>
		<path class="st7" d="M275.1,308c0,3.7-2.4,5.6-4.9,5.6s-4.8-2-4.8-5.4c0-3.2,1.9-5.6,5-5.6S275.1,305,275.1,308z M268.4,308.2
			c0,1.9,0.6,3.2,1.8,3.2s1.8-1.2,1.8-3.2c0-1.8-0.5-3.2-1.8-3.2S268.4,306.4,268.4,308.2L268.4,308.2z M270.4,321.1l10.2-18.4h2.2
			L272.6,321L270.4,321.1z M287.9,315.4c0,3.7-2.4,5.7-4.9,5.7s-4.8-2-4.8-5.4c0-3.2,1.9-5.6,5-5.6S287.9,312.3,287.9,315.4
			L287.9,315.4z M281.3,315.6c0,1.9,0.6,3.2,1.8,3.2s1.8-1.2,1.8-3.2c0-1.8-0.5-3.2-1.8-3.2S281.2,313.8,281.3,315.6L281.3,315.6z"
			/>
		<path class="st5" d="M521.8,295.9c0,3.7-2.3,5.7-4.9,5.7s-4.8-2-4.8-5.4c0-3.2,1.9-5.6,5-5.6S521.8,292.8,521.8,295.9z
			 M515.1,296.1c0,1.9,0.6,3.2,1.8,3.2s1.8-1.2,1.8-3.2c0-1.8-0.5-3.2-1.8-3.2S515.1,294.3,515.1,296.1L515.1,296.1z M517.1,309
			l10.2-18.4h2.2L519.3,309H517.1z M534.6,303.2c0,3.7-2.3,5.6-4.9,5.6s-4.8-2-4.8-5.4c0-3.2,1.9-5.6,5-5.6S534.6,300.2,534.6,303.2
			L534.6,303.2z M528,303.4c0,1.9,0.6,3.2,1.8,3.2s1.8-1.2,1.8-3.2c0-1.8-0.5-3.2-1.8-3.2S527.9,301.6,528,303.4L528,303.4z"/>
		<rect x="129.1" y="318.7" class="st18" width="25.4" height="13"/>
		<path class="st7" d="M157.9,314.6c0.8-0.1,1.5,0.5,1.6,1.4c0,0.2,0,0.4-0.1,0.6l-4.9,17.6c-0.2,0.9-1.1,1.5-2,1.5H131
			c-0.9,0-1.8-0.6-2-1.5l-4.9-17.6c-0.3-0.8,0.1-1.6,0.9-1.9c0.2-0.1,0.4-0.1,0.6-0.1H157.9z M149.3,329.7c-0.2,1.1,0.3,2,1,2
			s1.5-0.9,1.8-2l1.7-7.6c0.2-1.1-0.3-2-1.3-2c-1,0.1-1.9,1-2,2L149.3,329.7z M143.5,329.7c0,1.1,0.5,2,1.3,2s1.4-0.9,1.5-2l0.7-7.5
			c0.2-0.9-0.4-1.8-1.3-2c-0.1,0-0.1,0-0.2,0c-1,0.1-1.8,1-1.8,2L143.5,329.7z M137.7,329.7c0.1,1.1,0.8,2,1.5,2s1.3-0.9,1.3-2
			l-0.2-7.5c0-1-0.7-1.9-1.7-2c-0.9,0.1-1.6,0.9-1.6,1.8c0,0.1,0,0.1,0,0.2L137.7,329.7z"/>
		<path class="st7" d="M128.6,316.1L128.6,316.1c-0.2-0.2-0.2-0.6,0-0.9l12.7-13.2c0.2-0.2,0.5-0.2,0.7-0.1c0,0,0,0,0.1,0.1l0,0
			c0.2,0.3,0.2,0.6,0,0.9l-12.6,13.3c-0.2,0.2-0.5,0.2-0.7,0.1C128.6,316.2,128.6,316.1,128.6,316.1z"/>
		<path class="st7" d="M155.6,316L155.6,316c0.2-0.2,0.3-0.6,0.1-0.9l-10.5-16.8c-0.1-0.2-0.4-0.3-0.7-0.2c0,0-0.1,0-0.1,0.1l0,0
			c-0.2,0.2-0.3,0.6-0.1,0.9l10.5,16.8C155,316.1,155.3,316.2,155.6,316L155.6,316z"/>
		<g id="Web">
			<path class="st6" d="M488.8,295.3c0.1,2-1.5,3.7-3.4,3.8h-82.9c-2-0.1-3.5-1.8-3.4-3.8v-66.6c-0.1-2,1.5-3.7,3.4-3.8h82.9
				c2,0.1,3.5,1.8,3.4,3.8V295.3z"/>
			<path class="st3" d="M485.3,224.9h-82.9c-2,0.1-3.5,1.8-3.4,3.8v14.6h89.8v-14.6C488.8,226.7,487.3,225,485.3,224.9z"/>
			<path class="st18" d="M474.5,228.3c-0.1,1-0.9,1.7-1.9,1.6c-1-0.1-1.7-0.9-1.6-1.9c0.1-0.9,0.8-1.6,1.7-1.6
				C473.8,226.4,474.5,227.3,474.5,228.3z"/>
			<path class="st18" d="M480.2,228.3c-0.1,1-0.9,1.7-1.9,1.6c-1-0.1-1.7-0.9-1.6-1.9c0.1-0.9,0.8-1.6,1.7-1.6
				C479.5,226.4,480.2,227.3,480.2,228.3z"/>
			<path class="st18" d="M486.1,228.3c-0.1,1-0.9,1.7-1.9,1.6c-1-0.1-1.7-0.9-1.6-1.9c0.1-0.9,0.8-1.6,1.7-1.6
				C485.4,226.4,486.2,227.3,486.1,228.3L486.1,228.3z"/>
			<path class="st5" d="M466.4,231.2c0.1,1.5-1.1,2.8-2.7,2.9h-52.5c-1.5-0.1-2.7-1.4-2.7-2.9l0,0l0,0c-0.1-1.5,1.1-2.8,2.7-2.9l0,0
				h52.5C465.2,228.3,466.4,229.6,466.4,231.2z"/>
			<rect x="403.4" y="246.7" class="st5" width="53.6" height="29.6"/>
			<rect x="403.4" y="281.7" class="st16" width="81" height="5.4"/>
			<rect x="403.3" y="289.6" class="st16" width="81" height="5.4"/>
			<path class="st20" d="M485.3,224.9h-41.4V299h41.4c2-0.1,3.5-1.8,3.4-3.8v-66.6C488.8,226.7,487.3,225,485.3,224.9z"/>
		</g>
		<g id="Line">
			<path class="st5" d="M361.5,392.9l1.2,1.1c0,0,0.8-0.9,1.6-1.7c0.4-0.5,0.8-0.9,1.1-1.2l0.5-0.6l-1.3-1l-0.4,0.5l-1,1.2
				C362.3,392,361.5,392.9,361.5,392.9z"/>
			<path class="st5" d="M356.5,397.6l1,1.2l0.6-0.5c0.3-0.3,0.8-0.7,1.2-1.1c0.9-0.8,1.7-1.6,1.7-1.6l-1.1-1.2c0,0-0.8,0.8-1.7,1.6
				c-0.4,0.4-0.9,0.8-1.2,1.1L356.5,397.6z"/>
			<path class="st5" d="M351,401.7l0.9,1.4c0,0,0.3-0.1,0.6-0.4s0.9-0.6,1.4-0.9s1-0.7,1.3-1l0.6-0.5l-1-1.3l-0.6,0.4
				c-0.3,0.3-0.8,0.6-1.3,1s-0.9,0.6-1.3,0.9L351,401.7z"/>
			<path class="st5" d="M345,404.9l0.5,1.5l0.2-0.1l0.5-0.2l0.7-0.3l0.8-0.4l0.8-0.4l0.7-0.4l0.5-0.3l0.2-0.1l-0.9-1.4l-0.2,0.1
				l-0.5,0.2l-0.6,0.3c-0.2,0.1-0.5,0.3-0.7,0.4l-0.8,0.4l-0.7,0.3l-0.5,0.2V404.9z"/>
			<path class="st5" d="M338.5,406.5v1.6l0.8-0.1c0.5,0,1-0.2,1.6-0.3s1.2-0.3,1.6-0.4c0.2,0,0.4-0.1,0.5-0.2l0.2-0.1l-0.3-1.6
				l-0.2,0.1c-0.1,0-0.3,0.1-0.5,0.1c-0.4,0.1-1,0.3-1.5,0.4s-1.1,0.2-1.5,0.2L338.5,406.5z"/>
			<path class="st5" d="M331.9,405.8l-0.5,1.6l0.7,0.2c0.5,0.1,1,0.2,1.6,0.4l0.9,0.1c0.3,0,0.5,0.1,0.8,0.1h0.8l0.2-1.6h-0.7
				c-0.2,0-0.5,0-0.7-0.1l-0.8-0.1c-0.5-0.1-1.1-0.2-1.5-0.3L331.9,405.8z"/>
			<path class="st5" d="M326.1,402.5l-1,1.4l0.6,0.5l0.3,0.2l0.3,0.2l0.7,0.5l0.8,0.5l0.4,0.2l0.3,0.2l0.7,0.3l0.7-1.5l-0.6-0.3
				l-0.3-0.2l-0.3-0.2l-0.7-0.4l-0.7-0.5c-0.1-0.1-0.2-0.1-0.3-0.2c-0.1-0.1-0.2-0.1-0.3-0.2L326.1,402.5z"/>
			<path class="st5" d="M321.8,397.3l-1.3,1c0,0,0.2,0.3,0.4,0.6s0.6,0.9,1,1.4s0.8,1,1,1.3c0.1,0.2,0.3,0.3,0.4,0.4l0.1,0.1
				l1.1-1.2l-0.1-0.1l-0.3-0.4c-0.3-0.3-0.6-0.8-1-1.2s-0.7-0.9-0.9-1.3S321.8,397.3,321.8,397.3z"/>
			<path class="st5" d="M318.2,391.4l-1.4,0.9l0.4,0.6c0.2,0.4,0.5,0.9,0.8,1.4l1.2,2l1.4-0.9L318.2,391.4z"/>
			<path class="st5" d="M313.9,385.6l-1,1.3c0,0,0.2,0.2,0.5,0.5c0.1,0.2,0.3,0.4,0.5,0.5l0.5,0.7c0.4,0.4,0.7,0.9,0.9,1.3l0.4,0.6
				l1.3-1l-0.4-0.6c-0.3-0.4-0.6-0.9-1-1.4l-0.6-0.7l-0.5-0.6C314.1,385.8,313.9,385.6,313.9,385.6z"/>
			<path class="st5" d="M307.9,381.7l-0.6,1.5c0.2,0.1,0.5,0.1,0.7,0.2l0.7,0.3l0.7,0.4c0.3,0.1,0.5,0.3,0.7,0.4s0.4,0.3,0.6,0.4
				l0.6,0.4l0.9-1.4l-0.6-0.5c-0.2-0.2-0.4-0.3-0.6-0.4c-0.2-0.2-0.5-0.3-0.8-0.5l-0.8-0.4l-0.7-0.3
				C308.4,381.9,308.1,381.8,307.9,381.7z"/>
			<path class="st5" d="M300.7,381.1l-0.1,1.6h1c1.2,0,2.4,0,3.5,0.1l0.5-1.6c-1.3-0.1-2.5-0.1-3.8-0.1
				C301.4,381.1,301.1,381.1,300.7,381.1z"/>
			<path class="st5" d="M293.9,380.3l-0.3,1.6l0.7,0.1c0.4,0.1,1,0.2,1.6,0.3l0.9,0.1l0.8,0.1l0.7,0.1l0.2-1.6l-0.7-0.1l-0.7-0.1
				l-0.8-0.1c-0.6-0.1-1.1-0.2-1.6-0.3L293.9,380.3z"/>
			<path class="st5" d="M287.5,378.1l-0.8,1.4l0.2,0.1l0.5,0.2c0.2,0.1,0.5,0.2,0.7,0.3c0.3,0.1,0.5,0.2,0.8,0.3
				c0.6,0.2,1.1,0.4,1.6,0.5l0.7,0.2l0.4-1.6l-0.7-0.2c-0.4-0.1-0.9-0.3-1.5-0.5c-0.3-0.1-0.5-0.2-0.8-0.3s-0.5-0.2-0.6-0.3
				l-0.5-0.2L287.5,378.1z"/>
		</g>
		<g id="Rocket">
			<path class="st7" d="M222.8,346.3c0,0,8.5,32.6,43.7,34.3l5-10.1l5-10.1C253.9,333.3,222.8,346.3,222.8,346.3z"/>
			<path class="st21" d="M271.9,369.7l-0.1,0.2l-5.3,10.7c0,0,4.8-1,6.6-2.9l2.8-5.7l0.1-0.2l2.5-5c0.3-2.4-2-6.4-2-6.4L271.9,369.7
				z"/>
			
				<rect x="271.3" y="371.6" transform="matrix(0.444 -0.896 0.896 0.444 -180.3397 455.9456)" class="st7" width="11.8" height="3.4"/>
			
				<rect x="274.8" y="373.5" transform="matrix(0.444 -0.896 0.896 0.444 -180.0594 458.5151)" class="st16" width="9.3" height="1.6"/>
			<polygon class="st3" points="249.8,374.1 259.3,392 265.9,377.3 			"/>
			<polygon class="st3" points="259.8,351.4 279.7,348.1 272.1,362.4 			"/>
			<path class="st16" d="M233.6,343.6c-3.7,0.5-7.3,1.4-10.8,2.7c1.1,3.6,2.5,7,4.4,10.2L233.6,343.6z"/>
			<polygon class="st22" points="292.2,380.8 287.9,374.3 283.6,367.8 280.1,374.8 276.7,381.8 284.5,381.3 			"/>
			<polygon class="st22" points="288.5,379.1 285.6,374.5 282.6,369.8 280,374.9 277.5,380.1 283,379.6 			"/>
			<polygon class="st5" points="284.1,377 282.9,374.3 281.8,371.5 280,375 278.3,378.5 281.2,377.8 			"/>
			<path class="st23" d="M233.6,343.6L233.6,343.6c-3.5,0.5-7,1.3-10.4,2.5l0,0l-0.4,0.1l0,0l0,0l0,0l0,0l0.1,0.2l69,34.2h0.4
				l-4.3-6.5l-4.3-6.5l-1,2l-0.4,0.8l-1.4-0.7l0.5-1.1l-3-1.5l0.2-0.5c0.3-2.4-2-6.4-2-6.4l0,0c-0.7-0.8-1.4-1.6-2.1-2.4l5.3-9.9
				l-14.2,2.3C254,342.9,241.9,342.5,233.6,343.6z"/>
		</g>
		<g id="Concept">
			<g id="Board">
				<path class="st24" d="M654.2,191.6h54.5c2.1,0.1,3.8,1.9,3.7,4v71.2c0.1,2.1-1.6,3.9-3.7,4h-54.5c-2.1-0.1-3.8-1.9-3.7-4v-71.2
					C650.4,193.5,652.1,191.7,654.2,191.6L654.2,191.6z"/>
				<rect x="653.5" y="195.1" class="st5" width="56" height="72.2"/>
				<polygon class="st24" points="669.8,183.7 693.1,183.7 693.1,195.1 691.8,195.1 691.8,185.1 671,185.1 671,195.1 669.8,195.1 
									"/>
				<path class="st25" d="M668,190.5h26.9c0.6,0,1,0.5,1,1.1v5.1c0,0.6-0.4,1.1-1,1.1H668c-0.6,0-1-0.5-1-1.1v-5.1
					C667,191,667.4,190.5,668,190.5z"/>
				<path class="st26" d="M680.8,190.5h14.1c0.6,0,1,0.5,1,1.1v5.1c0,0.6-0.4,1.1-1,1.1h-14.1V190.5z"/>
				<path class="st27" d="M680.8,191.6h27.9c2.1,0.1,3.8,1.9,3.7,4v71.2c0.1,2.1-1.6,3.9-3.7,4h-27.9V191.6z"/>
			</g>
			<g id="Paragraph">
				<rect x="660.4" y="208.6" class="st16" width="40.8" height="1.3"/>
				<rect x="660.4" y="211.8" class="st28" width="40.8" height="1.3"/>
				<rect x="660.4" y="214.7" class="st16" width="40.8" height="1.3"/>
				<rect x="660.4" y="217.9" class="st16" width="40.8" height="1.3"/>
				<rect x="660.4" y="220.9" class="st28" width="40.8" height="1.3"/>
				<rect x="660.4" y="223.9" class="st16" width="40.8" height="1.3"/>
				<rect x="660.4" y="227" class="st16" width="40.8" height="1.3"/>
			</g>
			<g id="Diagram">
				<rect x="659.5" y="261.6" class="st16" width="40.8" height="1.1"/>
				<path class="st29" d="M663.2,250.5L663.2,250.5c0.6,0,1,0.4,1.1,0.9l0,0v9.9h-2.2v-9.9C662.1,250.9,662.6,250.5,663.2,250.5
					L663.2,250.5z"/>
				<path class="st30" d="M667.3,249.3L667.3,249.3c0.6,0,1.1,0.5,1.1,1.1v11h-2.1v-11C666.3,249.8,666.7,249.3,667.3,249.3z"/>
				<path class="st29" d="M671.5,250.5L671.5,250.5c0.6,0,1,0.4,1.1,0.9l0,0v9.9h-2.1v-9.9C670.4,250.9,670.9,250.5,671.5,250.5
					L671.5,250.5L671.5,250.5z"/>
				<path class="st30" d="M676,244.9L676,244.9c0.6,0,1.1,0.6,1.1,1.4v15.1h-2.2v-15.1C674.9,245.5,675.4,244.9,676,244.9z"/>
				<path class="st29" d="M680.3,251L680.3,251c0.6,0,1,0.4,1.1,0.9l0,0v9.5h-2.2v-9.5C679.3,251.4,679.8,251,680.3,251z"/>
				<path class="st30" d="M684.7,255.2L684.7,255.2c0.6,0,1.1,0.3,1.1,0.6v5.7h-2.1v-5.7C683.7,255.4,684.1,255.2,684.7,255.2
					L684.7,255.2z"/>
				<path class="st30" d="M689.3,245L689.3,245c0.6,0,1.1,0.6,1.1,1.4v15h-2.1v-15C688.2,245.7,688.7,245,689.3,245L689.3,245z"/>
				<path class="st31" d="M693.2,246L693.2,246c0.7,0.1,1.1,0.7,1.1,1.4v14h-2.2v-14C692.1,246.7,692.6,246.1,693.2,246z"/>
				<path class="st29" d="M696.8,242.2L696.8,242.2c0.6,0,1.1,0.8,1.1,1.7v17.5h-2.2v-17.5C695.8,243,696.3,242.2,696.8,242.2
					L696.8,242.2z"/>
				<rect x="702.9" y="245.7" class="st16" width="3.8" height="3.4"/>
				<rect x="702.9" y="251.4" class="st32" width="3.8" height="3.4"/>
				<rect x="702.9" y="257.1" class="st33" width="3.8" height="3.4"/>
			</g>
		</g>
		<g id="Lens">
			<path class="st7" d="M134.2,254.3c-2,2.4-5.6,2.6-8,0.6l0,0c-2.4-2-2.7-5.7-0.6-8.1l0,0l20.3-23.7c2-2.4,5.6-2.6,8-0.6l0,0
				c2.4,2,2.7,5.7,0.6,8.1l0,0L134.2,254.3z"/>
			<path class="st16" d="M135.1,251.9c-1.7,2-4.8,2.3-6.8,0.5l0,0l0,0c-2-1.7-2.3-4.8-0.5-6.8l17.3-20.1c1.7-2,4.8-2.3,6.8-0.5l0,0
				c2,1.7,2.3,4.8,0.5,6.8l0,0L135.1,251.9z"/>
			<path class="st6" d="M190.2,211.6c-7.4,8.6-20.3,9.6-28.9,2.2c-8.6-7.4-9.6-20.3-2.2-28.9c7.4-8.6,20.3-9.6,28.9-2.2l0,0
				C196.6,190.1,197.6,203,190.2,211.6z"/>
			<path class="st34" d="M155.9,226.9c0-3.2-2.5-5.7-5.7-5.7c-0.1,0-0.2,0-0.3,0c0.1,1.6,0.9,3.1,2.2,4.1
				C153.2,226.2,154.5,226.8,155.9,226.9z"/>
			<polygon class="st5" points="160.4,180.8 160.4,216.5 169.1,218.8 169.1,176.9 			"/>
			<path class="st3" d="M194.6,215.3c9.4-11,8.2-27.5-2.8-37c-11-9.4-27.5-8.2-37,2.8c-8.6,10.1-8.4,25,0.6,34.8l-4.4,5.2
				c0,0,0.2,4.9,4.9,4.7l4.7-5.5C171.5,227.4,186,225.3,194.6,215.3z M161.3,213.8c-8.6-7.4-9.6-20.3-2.2-28.9s20.3-9.6,28.9-2.2
				c8.6,7.4,9.6,20.3,2.2,28.9C182.8,220.2,169.9,221.2,161.3,213.8L161.3,213.8z"/>
		</g>
		<path class="st35" d="M631.7,423.9c0,0,28.3,84.7,21.2,153.4c-2.7,26.1-17.5,142.5-17.8,144.7s29.5,0.7,26.6,12.5
			c-1,4.4-48.4,1.6-48.4,1.6c1.2-10.9,1.7-21.9,1.6-32.9c-0.7-23.7-3.9-50.9-3.8-67.7c0.2-27.8,15.4-52.8,12.4-62.6
			s-40.7-105.5-41-142.2L631.7,423.9z"/>
		<path class="st35" d="M584.1,424.8c0,0-13.3,33.8-13.6,68.8s11,87.9,11,87.9s-27.8,10.6-45,70.5c-10.4,36.4-16.7,48.4-16.7,48.4
			s-9.2,4.3-5.5,12s26.2,24.2,29.3,24.9c5.8,1.2,7.4-2.9,6.1-7.4c-2.1-6.9-15.8-22.6-15.8-22.6s50.5-76.8,65.3-102.1
			s24.6-90.7,29.4-127.9s3.3-55.1,3.3-55.1L584.1,424.8z"/>
		<path class="st36" d="M613.4,709.7c-0.1,13.5-0.1,26.4-0.1,26.4s47.4,2.8,48.4-1.6c2.8-11.9-26.9-10.4-26.6-12.5
			c1.5-4,2.5-8.1,3.1-12.3L613.4,709.7L613.4,709.7z"/>
		<path class="st36" d="M525.1,683.1c-4.4,12.5-5.4,17.3-5.4,17.3s-9.2,4.3-5.5,12s26.2,24.2,29.3,24.9c5.8,1.2,7.4-2.9,6.1-7.4
			c-2.1-6.9-15.8-22.6-15.8-22.6c3.8-4.1,7.2-8.6,10.2-13.3L525.1,683.1z"/>
		<path class="st36" d="M635.6,425.7l-54.1,1.7C557.8,483,537.8,565,537.8,565s37.7,14.3,80,10.7s39.5-3.7,39.5-3.7
			S663.5,485.7,635.6,425.7z"/>
		<path class="st35" d="M632.8,357.5l53.1-9.2c0,0,21.5-6.6,26.5-6.6s-4,7.4-4,7.4l19.5-1.3c0,0,3.8,13.6-14.9,17.1
			c-13.8,2.6-18.5-2.6-18.5-2.6s-31.6,14.7-42.6,16.9l-11,2.2L632.8,357.5z"/>
		<path class="st37" d="M643,382.4l-1.3-27.4c0,0-21.3,0.7-33-11.3s-14.7-6-14,10S619.1,388.7,643,382.4z"/>
		<g id="Coding">
			<path class="st38" d="M791.7,386.2c0,3.2-2.6,5.8-5.8,5.8H669.3c-3.2,0-5.8-2.6-5.8-5.8v-72.1c0-3.2,2.6-5.8,5.8-5.8l0,0h116.5
				c3.2,0,5.8,2.6,5.8,5.8v72.1H791.7z"/>
			<rect x="669.2" y="313.8" class="st5" width="117.2" height="72.4"/>
			<path class="st25" d="M638.4,391.6c-0.1,0.5-0.1,1.1-0.1,1.6c0,4.6,2.8,8.3,6.2,8.3h166.6c3.4,0,6.2-3.7,6.2-8.3
				c0-0.5,0-1.1-0.1-1.6H638.4z"/>
			<path class="st36" d="M638.8,396.5c1,2.9,3.2,5,5.7,5h166.6c2.5,0,4.7-2,5.7-5H638.8z"/>
		</g>
		<g id="Text">
			<rect x="677.2" y="319.7" class="st11" width="41.5" height="2"/>
			<rect x="677.2" y="322.6" class="st11" width="41.5" height="2"/>
			<rect x="677.2" y="325.6" class="st11" width="41.5" height="2"/>
			<rect x="677.2" y="328.6" class="st11" width="41.5" height="2"/>
		</g>
		<g id="Point">
			<polygon class="st11" points="720.3,366 719.9,364.6 738.6,360.7 738.9,362.1 			"/>
			<polygon class="st11" points="726.1,346.2 727.1,345.2 740.7,359.3 739.7,360.3 			"/>
			<polygon class="st11" points="724.8,347.3 726,348 717,364.8 715.8,364.1 			"/>
			<path class="st4" d="M719.8,362.7c1.6,2.3,1,5.4-1.3,7s-5.4,1-7-1.3c-1.5-2.2-1-5.2,1.1-6.8C715,359.9,718.2,360.4,719.8,362.7z"
				/>
			<path class="st22" d="M730,343.5c1.3,1.9,0.8,4.5-1.1,5.8c-1.9,1.3-4.5,0.8-5.8-1.1c-1.3-1.8-0.8-4.4,1-5.7
				C726,341.1,728.6,341.6,730,343.5z"/>
			<path class="st39" d="M747.6,356.8c2,2.9,1.2,6.8-1.6,8.8c-2.9,2-6.8,1.2-8.8-1.6c-1.9-2.8-1.3-6.6,1.4-8.7
				C741.5,353.2,745.5,353.8,747.6,356.8C747.6,356.7,747.6,356.7,747.6,356.8z"/>
			<polygon class="st11" points="761.2,358.1 761.4,357.7 766.9,361.3 766.6,361.7 			"/>
			<polygon class="st11" points="767.3,360.3 766.8,360.3 765.8,353.9 766.3,353.8 			"/>
			
				<rect x="759.9" y="355.1" transform="matrix(0.7646 -0.6445 0.6445 0.7646 -49.3952 575.4739)" class="st11" width="6.4" height="0.5"/>
			<path class="st4" d="M766.2,360.3c0.8-0.5,1.9-0.3,2.4,0.5s0.3,1.9-0.5,2.4s-1.9,0.3-2.4-0.5l0,0
				C765.2,361.9,765.4,360.8,766.2,360.3z"/>
			<path class="st22" d="M760,356.2c0.7-0.4,1.6-0.2,2,0.4c0.4,0.7,0.2,1.6-0.4,2c-0.7,0.4-1.6,0.2-2-0.4
				C759.1,357.6,759.3,356.7,760,356.2L760,356.2z"/>
			<path class="st39" d="M764.6,350.7c1-0.6,2.4-0.3,3,0.7l0,0c0.7,1,0.4,2.3-0.6,3l0,0c-1,0.6-2.4,0.3-3-0.7l0,0
				C763.3,352.7,763.6,351.4,764.6,350.7L764.6,350.7z"/>
			<polygon class="st11" points="751.3,336.6 750.5,336.8 748.6,325.3 749.5,325.1 			"/>
			<polygon class="st11" points="739.7,331.9 739.1,331.2 747.8,323.9 748.4,324.6 			"/>
			<polygon class="st11" points="740.3,332.8 740.8,332.1 750.5,338.5 750.1,339.2 			"/>
			<path class="st4" d="M749.3,336.7c1.4-0.9,3.3-0.4,4.2,1s0.6,3.2-0.8,4.2c0,0,0,0-0.1,0c-1.5,0.9-3.4,0.4-4.2-1.1
				C747.6,339.4,748,337.6,749.3,336.7L749.3,336.7z"/>
			<path class="st22" d="M738.2,329.4c1.2-0.8,2.8-0.5,3.6,0.7s0.5,2.8-0.7,3.6c-1.2,0.8-2.8,0.5-3.6-0.7c0,0,0,0,0-0.1
				C736.7,331.7,737,330.2,738.2,329.4z"/>
			<path class="st39" d="M746.5,319.6c1.8-1.1,4.2-0.5,5.3,1.3c1.2,1.8,0.7,4.1-1.1,5.3l0,0c-1.8,1.1-4.2,0.5-5.3-1.3
				C744.2,323.1,744.7,320.7,746.5,319.6L746.5,319.6z"/>
		</g>
		<path class="st35" d="M604.1,256.1c0,0,11,31.3-0.9,42.5c-4.1,3.9-13.3-0.9-13.3-0.9l2.7,14.4l-21.2-8.2l-0.1-17.1
			C571.3,286.7,570.6,253,604.1,256.1z"/>
		<line class="st40" x1="602.6" y1="289.7" x2="597.5" y2="288.7"/>
		<path class="st41" d="M607.3,248.5c-5.4-14.9-31.9-21.1-44.5-4.6c-4.1,5.4-1.5,18.2-22.5,11.1c-9-3.1-24-0.1-28,13.9
			c-2.4,8.4-18.6,6-19.5,21.3c-1.1,18.2,17.3,32.4,35.8,27.3c28.8-8,20.1-31.7,40.6-27.8c1.6,1.8,3.2,2.8,4.6,2.5
			c5-0.8,0.4-15.4,8.8-17.7S614.8,269.3,607.3,248.5z"/>
		<path class="st42" d="M593.7,307.7l-23.3-4c0,0-12,5.2-12.7,30c-0.7,26,6,44,15.3,64.6c10.5,23.2-2.9,34.2-2.9,34.2l71.5-8.2
			c0,0-15.3-26-14-56.6c0.2-3.9,0.2-25.1-1.3-28.6C618.8,321.7,606.9,320.9,593.7,307.7z"/>
		<path class="st35" d="M632.4,390.4c0,0,21.5,0,34.2,4.5s43.6,4.2,43.6,4.2c5.5-4.4,12.3-6.7,19.3-6.6c12.1,0,14.3,1.1,8.8,2.8
			s-7.2,3.3-1.7,3.9s17.6-2.8,12.7,5s-16.5,14.9-28.1,12.6s-14.9-3.3-14.9-3.3s-29.9,4.6-46.4,4.6s-31.1-7.1-31.1-7.1L632.4,390.4z"
			/>
		<path class="st37" d="M645,390.4l-12.7-2.7c0,0-27.6-58.5-49.5-59.3c-17.5-0.6-18.6,14,0.2,43.3s52,44,52,44L645,390.4z"/>
	</g>
</g>
</svg>
