<?xml version="1.0" encoding="utf-8"?>
<!-- Generator: Adobe Illustrator 23.0.1, SVG Export Plug-In . SVG Version: 6.00 Build 0)  -->
<svg version="1.1" id="Layer_1" xmlns="http://www.w3.org/2000/svg" xmlns:xlink="http://www.w3.org/1999/xlink" x="0px" y="0px"
	 viewBox="0 0 674.9 497.1" style="enable-background:new 0 0 674.9 497.1;" xml:space="preserve">
<style type="text/css">
	.st0{fill:#84838B;}
	.st1{fill:#E5E5E5;}
	.st2{fill:#02C79B;}
	.st3{fill:#61D4E6;}
	.st4{fill:#303C74;}
	.st5{fill:#00B78E;}
	.st6{fill:#FEFEFE;}
	.st7{fill:#1B214A;}
	.st8{fill:#4C63B4;}
	.st9{fill:#1C214A;}
	.st10{fill:#09BD8C;}
	.st11{fill:#FAC103;}
	.st12{fill:#02C79C;}
	.st13{fill:#0FBDD2;}
	.st14{fill:#FDFDFE;}
	.st15{fill:#FAAC86;}
	.st16{fill:#03C89C;}
	.st17{fill:#86838C;}
	.st18{fill:#0DC89E;}
	.st19{fill:#FD959B;}
	.st20{fill:#9A5844;}
	.st21{fill:#E6A58B;}
	.st22{fill:#DDD8DD;}
	.st23{fill:#6F809C;}
	.st24{fill:#3E2E45;}
	.st25{fill:#FAF5F5;}
	.st26{fill:#9E9AA8;}
	.st27{fill:#77799A;}
	.st28{fill:#F7F4F8;}
	.st29{fill:#7C7B8D;}
	.st30{fill:#85808D;}
	.st31{fill:#1C6A7C;}
	.st32{fill:#8484A6;}
	.st33{fill:#989AB8;}
	.st34{fill:#F5F3F9;}
	.st35{fill:#757498;}
	.st36{fill:#9593AF;}
	.st37{fill:#F9C101;}
	.st38{fill:#ECB408;}
	.st39{fill:#293361;}
	.st40{fill:#FDFDFD;}
	.st41{fill:#A65D3F;}
	.st42{fill:#F6F4F6;}
	.st43{fill:#A45A3F;}
	.st44{fill:#FDF9F0;}
	.st45{fill:#A1A0B4;}
	.st46{fill:#928FA4;}
	.st47{fill:#F7F5F7;}
	.st48{fill:#9C9BAC;}
	.st49{fill:#727189;}
	.st50{fill:#7B7792;}
	.st51{fill:#9998AD;}
	.st52{fill:#595673;}
	.st53{fill:#5B5A75;}
	.st54{fill:#565272;}
	.st55{fill:#65667E;}
	.st56{fill:#646181;}
	.st57{fill:#52506D;}
	.st58{fill:#147C81;}
	.st59{fill:#167680;}
	.st60{fill:#12797E;}
	.st61{fill:#176E7E;}
	.st62{fill:#10797B;}
	.st63{fill:#166E7E;}
	.st64{fill:#16707B;}
	.st65{fill:#166C79;}
	.st66{fill:#10908A;}
	.st67{fill:#1A6479;}
	.st68{fill:#138C8B;}
	.st69{fill:#109990;}
	.st70{fill:#176577;}
	.st71{fill:#F8F7F8;}
	.st72{fill:#51C9D3;}
	.st73{fill:#293460;}
	.st74{fill:#F7AB86;}
	.st75{fill:#293360;}
	.st76{fill:#A45B3E;}
	.st77{fill:#F9AF89;}
	.st78{fill:#5E393D;}
	.st79{fill:#F5E8D3;}
	.st80{fill:#F4818B;}
	.st81{fill:#FD9198;}
	.st82{fill:#FC9299;}
	.st83{fill:#0CBC8D;}
	.st84{fill:#08C099;}
	.st85{fill:#FCF7F7;}
	.st86{fill:#137378;}
	.st87{fill:#14737B;}
	.st88{fill:#166479;}
	.st89{fill:#9A97AB;}
	.st90{fill:#A19EB2;}
	.st91{fill:#7C7991;}
	.st92{fill:#5F5E7A;}
	.st93{fill:#66627F;}
	.st94{fill:#9C99AB;}
	.st95{fill:#56526F;}
	.st96{fill:#6F6C80;}
	.st97{fill:#4B4969;}
	.st98{fill:#0FB88F;}
	.st99{fill:#E79A77;}
	.st100{fill:#A65B3C;}
	.st101{fill:#A0593F;}
	.st102{fill:#8C4A35;}
	.st103{fill:#E0E2ED;}
	.st104{fill:#D7CEC5;}
	.st105{fill:#137779;}
	.st106{fill:#FEFDFB;}
	.st107{fill:#EB9269;}
	.st108{fill:#FD9298;}
	.st109{fill:#F4828B;}
	.st110{fill:#FEFDFE;}
	.st111{fill:#64627C;}
	.st112{fill:#F1FDFC;}
	.st113{fill:#A55A3F;}
	.st114{fill:#A46046;}
	.st115{fill:#3F2D3E;}
	.st116{fill:#5B373F;}
	.st117{fill:#D6D4D6;}
	.st118{fill:#272A4C;}
	.st119{fill:#EF818B;}
	.st120{fill:#9392A3;}
	.st121{fill:#FE9197;}
	.st122{fill:#696C85;}
	.st123{fill:#984C32;}
	.st124{fill:#354075;}
	.st125{fill:#354177;}
	.st126{fill:#ABC1DE;}
	.st127{fill:#79768E;}
	.st128{fill:#696680;}
	.st129{fill:#6F445D;}
	.st130{fill:#E88694;}
	.st131{fill:#9D9DB0;}
	.st132{fill:#663D5A;}
	.st133{fill:#605F7A;}
	.st134{fill:#86869D;}
	.st135{fill:#908D9F;}
	.st136{fill:#6C6981;}
	.st137{fill:#9290A6;}
	.st138{fill:#5A5675;}
	.st139{fill:#928FA0;}
	.st140{fill:#54526F;}
	.st141{fill:#77738A;}
	.st142{fill:#918EA1;}
	.st143{fill:#74738A;}
	.st144{fill:#5D5973;}
	.st145{fill:#987086;}
	.st146{fill:#5D5975;}
	.st147{fill:#8A869B;}
	.st148{fill:#89869B;}
	.st149{fill:#565572;}
	.st150{fill:#5D5A75;}
	.st151{fill:#64607A;}
	.st152{fill:#565270;}
	.st153{fill:#524E6B;}
	.st154{fill:#E2E1E2;}
	.st155{fill:#888799;}
	.st156{fill:#96556A;}
	.st157{fill:#D7CDD3;}
</style>
<title>Asset 1</title>
<g>
	<g id="Isolation_Mode">
		<path class="st0" d="M531.9,495.8c8.2,0.1,16.3,0.2,24.5,0.2c39.5,0.1,79,0.1,118.5,0.1c0,0.3,0,0.6,0,0.8H509.3
			c-0.5,0-1-0.1-1.5-0.2c0.4-2.9,2.6-2.8,4.7-2.6c4.4,0.7,8.8,0.1,13.2,0.3C527.9,494.6,530.1,494.4,531.9,495.8z"/>
		<path class="st1" d="M98.6,301.6c8.8,23.5,22.1,45.1,39,63.6c13,14.2,28.2,25.8,44.8,35.6c3.5,2,6.7,3.9,7.4,8.3
			c2.4-3.3,1.3-7.1,1.3-10.6c0.1-30.2,24.8-55.4,55.1-56c31.5-1,57.9,23.8,58.9,55.3c0.2,6.9-0.8,13.7-3,20.2
			c-0.8,2.3-2.1,4.6-1.3,7.2c1.6,1.3,3.4,0.8,5.1,0.5c2.9-0.4,5.8-0.8,8.7-0.1c0.7,0.2,1.5,0.1,2.1-0.1c0.4-0.3,0.6-0.7,0.7-1.2
			c-0.3-1.8-0.2-3.6,0.3-5.3c0.1-0.7,0.2-1.3,0.1-2c-0.3-1.5-0.7-3-1.2-4.5c-0.2-0.3-0.5-0.6-0.8-0.9c-0.2-1.3,1.5-0.7,1.6-1.7
			c1-1.7,0.6-3.7,1.1-5.5c0-0.5,0-0.9,0-1.4c-0.5-2-0.4-4.1,0.2-6.1c0.4-1.8,0.4-3.7,0.8-5.5c0.1-0.5,0.1-0.9,0-1.4
			c-0.3-1.5-0.5-3.1-0.7-4.7c-0.2-2.8-2.5-5.8,0.8-8.3c0.2-0.4,0.3-0.9,0.4-1.4c0.1-1.2,0.1-2.3,0-3.5c0-1.8-1.7-2.6-2.3-4
			c1.2-0.4,2.5-0.8,3-2.2c1.7-10,2.5-20.1,2.5-30.2c0.2-2.1-0.6-4.1-0.2-6.2c0.2-0.5,0.3-1.1,0.3-0.9c-0.5,1.1-0.3,2.3,0.5,3.1
			c0.9,0.5,1.5,0,1.9-0.7c2.5-7.1,2.5-14.7,3.9-22c2.9-15.7,4.6-31.4,1.1-47.5c-3.6-16.3-3.2-33-0.9-49.6c0.3-1.5,0.2-3-0.2-4.5
			c-1.5-3.3-1-6.7-0.9-10.2c0.4-9.9,2.5-19.7,1-29.6c-0.3-1-1-1.8-1.9-2.3c-8.5-4.6-8.9-11.8-6.9-20.1c2.4-9.1,5.5-18.1,9.4-26.7
			c2.4-5.5,6.4-9.2,12.4-10.5c2.3-0.5,4.6-0.9,6.5-2.2c1.9-1.8,4.6-1.9,6.9-2.7c1.9-0.6,3.9-1.1,4.6-3.3c0.5-4.3,1.2-8.7,1.4-13
			c-0.3-3-0.9-6-1.3-9c-1.4-2.7-2-5.7-1.6-8.7c-0.2-3.1,0.9-6.5-1.3-9.3c-10.1-5.4-20.8-9-31.9-11.8c-13.4-3.4-27.2-5.5-41-6.1
			c-9.6-0.5-19.1,0.9-28.7,1.8C233,46.2,210.4,53,189.8,64c-29.7,15.8-54.5,37.4-72.6,66.1c-8.4,13.3-15.8,27.1-20.6,42.1
			c-2.8,8.4-5.1,17.1-6.8,25.8C89.9,198,79.3,263.1,98.6,301.6z"/>
		<path class="st2" d="M189.9,409c-0.8-11.9-0.2-23.5,5.2-34.6c11.6-24,37-37,63.8-32.4c25,4.3,44.4,25.5,47.3,51.4
			c1.3,11.1-1.1,21.5-5.1,31.6c0.7,2.5-1.2,4-2.2,5.8c-4.7,8.3-11.5,14.5-19.4,19.5c-1.4,0.9-2.8,1.8-4.6,1.5
			c-6.7,2.7-13.5,5.3-20.8,5.8c-1.3-2-0.3-4.3-0.7-6.4c-1.4-2.8-0.7-5.8-1.2-8.7c-0.4-1.3-0.2-2.6-0.7-3.9c-0.1-1.3,0-2.6-0.1-4
			c-1.1-5.4-1.3-10.8-2-16.2c-0.5-2.8,0.6-5.7,2.8-7.4c1.6-2.4,3.5-4.6,5.7-6.4c-2.1,1.7-3.9,3.7-5.4,6c-0.9,1-1.7,2.9-3.3,2.2
			c-1.4-0.5-0.5-2.3-0.7-3.5c-0.3-1.6-0.6-3.2-1-4.7c0.1-3.2-0.3-6.4-1.1-9.5c-0.6-1.5,0.3-3.2-0.4-4.7c0-1.3-0.2-2.7-0.5-3.9
			c0-2.7,0.1-5.4-1-7.9c0.5-4.6-1.4-8.9-1.1-13.5c-0.5-0.9,0-2.2-1.1-3.2c1,1.4,0.8,2.8,1.1,4.1c-0.3,4.3,1.6,8.3,1,12.6
			c1.5,3,0.5,6.4,1.4,9.5c0,1.3,0.2,2.6,0.4,3.9c-0.1,0.8-0.7,1.4-1.5,1.5c-10.1-2.4-19.8-6.5-29.7-9.5c-2.9-0.9-5.7-1.8-8.5-2.7
			c13.1,4,25.9,8.7,38.9,12.7c0.5,0.3,0.8,0.7,0.9,1.2c0.8,3.2,1.2,6.4,1.2,9.7c1.9,9.7,1.9,19.7,3.8,29.4c0.2,1.6-0.2,3.3,0.3,4.9
			c0.2,1.3,0.4,2.6,0.7,3.9c0.1,2.6-0.2,5.3,1,7.9c-0.1,2.2,0.5,4.4-0.4,6.5c-29.4,2.7-56.1-17.1-62.2-45.9
			C190.6,410.9,190.2,410,189.9,409z"/>
		<path class="st3" d="M477.8,249.3c5.2-4.4,11.6-6.3,17.9-8.3c4.4-1.6,9.4-1,13.3,1.7c2,0.9,3.9,1.8,5.9,2.7
			c3.3,1.4,5.4,4.7,5.3,8.3c0,23,0.1,45.9,0,68.9c0,3.9-3,7.2-2.9,11.2c-1.4-2.5-3.2-3.1-6.1-2.2c-5,1.5-10.2,0.7-15.4,0.8
			c-4.5-1.3-9.6-0.3-13.3-4c1.1-18.1,0.6-36.3,1.9-54.3c0.2-0.7-0.1-1.5-0.7-2c-3.9,1.6-5.9,5.5-9.2,7.9c-4.1,1.4-6.9,4.9-10.6,7.1
			c-0.4,0.3-0.8,0.5-1.2,0.8c-7.7,6.3-15.4,6-23.9,1.2c-8.2-4.6-16.7-8.9-24.9-13.6c-1.7-1-3.6-1.8-3.8-4.2c0.2-2.6,1.5-5,3.5-6.5
			c2.5-1.4,4.8-0.2,7.1,0.9c7.4,3.7,15.2,6.6,22.6,10.3c3.5,1.7,6,1.5,8.6-1.8c4.7-6,10.1-11.4,15.4-16.9
			C471.7,255.8,473.4,250.8,477.8,249.3z"/>
		<path class="st1" d="M396.9,82.2c4.5,4.3,9,8.7,13.6,12.9c16.2,14.7,28.6,32.3,38.9,51.4c5.1,9.8,9.3,20.2,12.5,30.8
			c6.3,20.3,9,41.5,8.1,62.7c-1.6,0.7-2.5-0.5-3.3-1.5c-3.3-4.2-7.4-7.6-10.2-12.2c-1.8-3.4-2-8.2-7.5-8.3
			c-1.6-4.1-3.4-8.3-3.3-12.8c0-2.3-0.9-3.9-2.3-5.7c-2.4-3.2-1.9-8-5.2-10.9c-2-6.3-5.1-12.1-6.9-18.5c0.1-1.4,0.8-2.5,1.1-3.8
			c1.3-6.1,0.1-8-6-9.4c-2.3-1.1-3-3.4-4-5.5c-4.2-8.6-8.8-17.1-13.7-25.3c-0.8-1.3-1.1-3.3-3.3-3.2c-3,2.9-4.9,6.7-7.3,10
			c-0.8,1.1-1.3,3.4-3.6,1.8c-1.4-3.3-0.3-6.5,0.1-9.8c1.1-9.1,0.4-10.2-7.6-14.4c-2.2-1.1-4.7-1.8-6-4.2c-0.2-0.8,0.3-1.6,1-1.9
			c6.1-0.8,8.6-4.6,9.1-10.5c0.2-2.8,0.6-5.6,1.1-8.3c0.5-1.8,1.8-3.2,3.6-3.8C396.1,81.6,396.6,81.8,396.9,82.2z"/>
		<path class="st4" d="M495.9,331.1c6.9,0,13.9,0.8,20.3-2.6c1.6,1.7,0.4,3.6,1,5.2c-1.1,4.8-2.1,9.6-3.2,14.4
			c-1.3-0.9-1.1-2.3-1-3.6c-1.5,2.9-4.3,3.9-7.1,4.6c-3.4,0.9-5,3.1-6.4,6.3c-5,11.5-7.8,23.2-6.3,35.8c0.3,2.1,0.2,4.3-0.3,6.5
			c-0.3,1.1-0.3,2.9-2.4,2.1c-1.6-2.5-1-5.4-1.1-8.1c0.2-3.6-0.2-7.2,0.4-9.6c-0.4,2.3-2.1,5.5-3,8.8c-1.5,3.9-2.6,7.9-4.1,11.7
			c-2,4.5-1.3,9.2-1.4,13.8c1.6,25.6,2.7,51.3,1.2,77c0.1,0.6,0.2,1.2,0.1,1.8c-0.1,0.6-0.4,1.1-0.8,1.5l-30.9,0.1
			c-0.4-0.4-0.7-0.9-0.8-1.4c-0.2-4.3,2.8-6,6.1-7.3c2.6-1,5.4-1.5,7.9-2.7c1.4-0.9,3.1-1.9,2.2-3.9c-3-6.1-1.9-12.8-2.5-19.2
			c-1.1-11.9-1.7-23.9-2.4-35.8c-0.4-9-1.5-18.1-1-27.1c0.9-4.7,0.3-9.7,2.2-14.2c0.3-0.8,1.4,0.6,1.7-0.8c3.2-14.2,8-28,12.5-41.9
			c1-3.4,3.6-6,7-7C487.8,334.2,491.7,332.3,495.9,331.1z"/>
		<path class="st5" d="M545,396c16.8,1.4,32.1,16.8,34.7,34.9c3.4,22.7-12.3,43.8-35,47.2c-0.7,0.1-1.4,0.2-2.1,0.3
			c-2.6,0.3-5.2,0.3-7.8-0.1c-2.1-2.4-0.6-5-0.3-7.6c0.8-6.7,1.9-13.4,3.1-20c0.2-1.4,0.7-2.7,2-3.3c8.8-4.1,17.8-7.9,26.4-12.5
			c-7,3.4-14,7-21.2,10c-1.5,0.6-2.9,2.3-4.5,1.2c-1.9-1.3-1.7-3.6-1.2-5.5c1.3-5.5,2.4-11,3.5-16.5c0.4-1.8-0.5-3.9,1.3-6.1
			c-1.9,2.2-0.9,4.2-1.4,6c-1.1,2.2-0.7,4.6-1.1,6.8c-0.9,5.5-2.2,6-6.7,2.8s-9.1-6.6-13.8-9.8c-1.6-1.6-4.1-2.4-4.3-5.1
			c0.7-1.8,2.3-2.3,3.8-3c6.1-2.7,11-7.7,13.5-13.9C536.7,394.8,537,394.9,545,396z"/>
		<path class="st6" d="M274.9,451.9c11.1-6.2,20.2-15.6,26.1-26.9c3.9-0.5,7.8-0.8,11.6-1.5c1.6-0.3,2.1,0.2,2.3,1.6
			c0.9,1.1,1.4,2.6,1.3,4c0.1,2.5,0,5-0.3,7.5c-0.6,2.1-0.8,4.2-0.6,6.4c0.1,2.4,0,4.8-0.3,7.2c-0.9,2.4-0.6,4.9-0.8,7.3
			c-0.2,0.4-0.5,0.8-0.9,1c-0.9,0.4-1.8,0.5-2.8,0.4c-0.6,0-0.9,0.6-0.3,0.3c0,0,0.2,0.2,0.3,0.4c1,1,2,2.1,1.6,3.5
			c-1.7,5.8,0.4,11.5,0,17.3c0,1.6,0,3.2,0,4.8c0.1,2.3,0,4.6-0.4,6.8c-0.7,1.6-0.5,3.8-2.7,4.4c-15.5,0-31,0-46.5,0
			c-2.2,0-5.2,0.6-3.8-3.5c2.2-3.6,0-8.2,2.9-11.7c0.4-0.5-0.3-1.5-0.8-2.2c-2.9-4-2.6-4.4,2.2-5.1c1.3-0.2,2.9-0.1,3.2-1.7
			c0.3-1.7-1.1-2.2-2.6-2.3c-5.9-0.5-1.8-4.5-1.6-6.3c0.2-2.8,3.1-2.1,4.7-1c3,2.2,5.7,2.6,9.2,0.8c3.2-1.7,2.5-3.4,0.2-4.5
			C272.2,457.2,273.3,454.7,274.9,451.9z"/>
		<path class="st7" d="M491.2,400c1.6-5.2,1.2-10.7,0.5-15.8c-1.2-9.2,2.4-17.1,5.3-25.3c0.4-0.9,0.8-1.8,1-2.8
			c0.7-5,3.6-7.9,8.6-8.4c2.8-0.3,4.5-2.6,6.9-4.3c0.2,1.9,0.3,3.4,0.4,4.8c-0.3,4.7-0.6,9.3-0.9,14c2.2,4,0.1,8,0,12
			c-0.2,3.7-0.5,7.5-1.1,11.2c-0.9,2.7-0.6,5.5-0.5,8.2c-2.5,9-0.6,17.9,0.5,26.8c1.9,17.8,4.1,35.5,5.9,53.4
			c0.7,4.9,0.5,9.8,1.6,14.7c0.9,4-1.1,5.6-7.7,6.6c-1.7-0.2-3.1,0.2-4,1.9l-15.7,0c-0.4-0.4-0.7-0.9-0.8-1.5c0.3-3.4,3-4.5,5.5-5.7
			c5-2.3,6.5-4.6,5.5-9.6c-4.2-22-7.1-44.2-10.7-66.2c-0.2-3-1-5.9-1.3-8.9C490.2,403.4,489.4,401.5,491.2,400z"/>
		<path class="st8" d="M569.3,0c11.2,0,20.4,9,20.6,20.2c0,11.3-9.1,20.5-20.5,20.5c-11.3,0-20.5-9.1-20.5-20.5
			C548.9,9,558,0,569.2,0C569.1,0,569.2,0,569.3,0z"/>
		<path class="st7" d="M486.9,207.3c-2.7-4-0.3-11.3,4.8-14.1c4.3-2.4,9.4-2.8,14-1.2c2.5,0.8,5.2,0.9,7.7,0.2
			c7.4-1.9,14.2,2.5,16.1,9.7c1.8,7-2.5,14.2-9.5,15.9c-0.1,0-0.2,0.1-0.3,0.1c-2.3,0.6-3.4,1.4-3.9,3.7c-0.9,3.4-2.6,6.5-4.9,9.1
			c-4.6,3.3-12.2,3.1-16.4-0.4c-2.1-1.7-2.6-3.6-1-6c0.8-1.3,2-2.6,0.4-4.2c-2-1.1-6,3.6-6.3-2.3
			C488.7,214.3,489.5,210.7,486.9,207.3z"/>
		<path class="st9" d="M393.1,85.2c-0.5,4-0.8,7.9-1.6,11.8c-1.3,6.6-2.4,7.4-9.4,7.8c-1.1-0.4-2.2,0.3-3.3-0.2
			c-1.1-0.4-2.1-1-3-1.7c-0.4-0.3-0.7-0.6-1-0.9c-2.5-4.8-8.2-6.2-11.4-10.3c-1.5-1.2-1.9-3-2.4-4.7c-0.6-3-1.7-6-1.2-9.1
			c2.7-0.8,6.6-0.2,5.8-5.2c-0.6-3.9-1.8-4.7-5.5-3.2c-0.7,0.3-1.4,0.9-2.3,0.4c0-3.3,0.1-6.7,0.1-10c4.2-12.8,12.2-17.6,25.2-15.1
			c8.6,1.7,9.9,3.3,11.8,14.1c0.6,1.5,1.1,3-0.6,4.2c-1-0.3-1.8-1-2.3-1.9c-2.3-5.5-8.2-5.8-14.3-4.4c-4.2,1-6.2,4.7-6.4,10.6
			c-0.1,1.8,0,3.6,0,5.4c0,1.3,0,2.6,0.1,3.9c0.9,6.5,2.5,7.6,8.8,5.8c3.5-1.1,7.2-1.3,10.7-0.4C392.1,82.9,393.4,83.4,393.1,85.2z"
			/>
		<path class="st10" d="M510.8,420.1c-1.3-9-4-18,0.1-27c0.3-1.2,1-2.2,2-2.8c2.7-1.5,4.4-4.4,7.4-5.5c5.2-0.8,10-3.9,15.6-2.7
			c1,1.3,1.5,3,1.3,4.6c-0.5,5.9,1.5,9.5,8,9.3c-5.3-1.2-8.7,1.1-10.1,6.1c-2.5,8.4-9.1,12.5-16.4,15.9c-0.6,0.3-1.1,0.7-1.6,1
			c-0.5,0.6-1.1,1-1.8,1.1C513.7,420.3,512.2,420.9,510.8,420.1z"/>
		<path class="st11" d="M32.9,364.9c0,8.9-7.2,16.2-16.1,16.2c-0.2,0-0.4,0-0.5,0c-9,0-16.3-7.4-16.3-16.4c0-0.1,0-0.1,0-0.2
			c0.2-9.1,7.6-16.3,16.7-16.3C25.7,348.3,33,355.7,32.9,364.9C32.9,364.8,32.9,364.8,32.9,364.9z"/>
		<path class="st12" d="M535.8,382.1l-15.9,4c-0.6-1.5,0.8-2,1.4-2.8c-2.2,1.5-3.4,4.3-6.4,4.9c-1.7-0.2-3.9,0.6-4.1-2.2
			c0.1-8,1.3-15.9,2.3-23.8C524.4,364.6,532.5,370.6,535.8,382.1z"/>
		<path class="st13" d="M456.8,226.1l13.1,13.9l7.8,9.3c-3.1,2.8-4.7,7.5-9.8,7.8c-0.2,0-0.4,0-0.5-0.1
			c-6.8-8.1-12.5-16.9-16.3-26.8C452.3,227.8,453.9,225.9,456.8,226.1z"/>
		<path class="st14" d="M511.8,495c6.6-4.1,6.5-4.1,5.2-12.4c-0.5-3-0.4-6.2-0.6-9.3c1-1,2.2-0.7,3.2-0.2c4.1,2,8.7,2.7,13,4.2
			c0.4,0.3,0.8,0.7,0.9,1.1c0.6,3.2-1.2,6.3-0.6,9.5v2c-1.1,1-1.5,2.6-1,4.1v1.7C525.2,495.7,518.4,497.2,511.8,495z"/>
		<path class="st15" d="M495.1,224.3c-3.8,3.1-1,4.7,1.5,5.9c4.6,2.1,9.4,1.9,14.1,0.5c0.1,4.1-0.9,8-1.8,11.9l-13.3-1.7
			c0-0.3,0.1-0.6,0.2-0.9l0.3-0.3c0.1-0.1,0,0-0.4,0.3c-0.6-1-0.9-2.5-1.8-2.8c-5.3-2.3-7-7.3-9-12c0.3-1.9-0.9-3.8,0-5.7
			c0.3-0.7,0.7-1.3,1.4-1.7c0.5-0.2,1-0.1,1.4,0.1c0.8,0.7,0.7,3.3,2.8,1.3c1.3-1.2,2.7-1.8,4.1-0.1
			C494.6,220.9,494.6,222.7,495.1,224.3z"/>
		<path class="st16" d="M82.4,45.6c4.8-0.2,8.9,3.6,9.1,8.4s-3.6,8.9-8.4,9.1s-8.9-3.6-9.1-8.4c0-0.1,0-0.2,0-0.3
			C74,49.6,77.7,45.8,82.4,45.6z"/>
		<path class="st17" d="M258.9,493c-0.5,3.1,1.5,3,3.6,3c15.8-0.1,31.5-0.1,47.3-0.1c0.7-0.6,1.5-0.9,2.4-1.1
			c3.5-0.3,7-0.3,10.6-0.2h1.8c12.1-0.2,24.2-0.2,36.3,0c4.1,0.1,7.5-0.6,9.5-4.5c0.5-0.3,1.1-0.4,1.6-0.2c1.2,4,3.8,5,7.8,4.8
			c6.3-0.3,12.6-0.1,18.9-0.1h1.8c3.6-0.1,7.3-0.1,10.9,0c11.4-0.3,22.8-0.1,34.2-0.1c1.8,0,3.7,0,5.1,1.3l0.3,1.1L296.1,497
			c-19.8,0-39.6,0-59.5,0c-1.6,0-3.3,0.4-5.9-1c8.3,0,15.6-0.1,22.8,0.1c3.2,0.1,4.7-0.6,3.6-4h0.7L258.9,493z"/>
		<path class="st18" d="M121.8,442.4c-0.1,3.8-3.2,6.9-7,7c-3.8,0.2-7-2.7-7.1-6.5c0-0.1,0-0.2,0-0.3c-0.1-4,3-7.3,7-7.4
			c0.1,0,0.1,0,0.2,0C118.6,435.5,121.6,438.5,121.8,442.4z"/>
		<path class="st19" d="M582.6,282.2c-3.9-0.1-5.5-2-5.4-4.8c0.1-3,2.1-5.1,5.2-4.9c2.6,0,4.6,2.1,4.6,4.6c0,0.1,0,0.2,0,0.3
			C586.9,280.8,584.8,282.1,582.6,282.2z"/>
		<path class="st20" d="M394.9,68.2c0.1,0.7,0.1,1.3,0.2,1.9l-0.4,0.5c-1.1,0.9-2.3,1.7-3.6,2.5c-3,2.4-4.6,0.4-6.3-1.8
			c-0.3-0.2-0.6-0.5-1-0.7c-1-0.6-2.3-0.5-3.3,0.2c-0.6,0.6-1.3,1.2-2.1,1.5c-0.5,0-0.9-0.3-1.2-0.7c-0.3-0.7-0.5-1.4-0.4-2.2
			c0.1-0.8,0.4-1.5,1-2c2.6-1.6,6,0,8.5-2c0.9-0.4,1.9-0.5,2.8-0.1C390.7,67.4,393.5,66.3,394.9,68.2z"/>
		<path class="st21" d="M487.9,218.1c-0.3,0-0.6,0-0.8,0c-0.6,0-1.2-0.3-1.5-0.8c-0.5-0.7-0.7-1.5-0.6-2.3c1.2-2.4,2.4-4.8,2-7.7
			C490.7,210.5,491,213.1,487.9,218.1z"/>
		<path class="st22" d="M396.9,82.2c-0.3,0-0.6-0.1-0.9-0.2c-0.7,0.6-1.7,0.6-2.4,0c-1.4-2-1-4.8,1-6.3c3.6-1.6,3.5,1.4,4.3,3.4
			L396.9,82.2z"/>
		<path class="st23" d="M532.9,488c-2-3.2,0.9-6.5,0-9.7c0.3-0.6,1-0.8,1.6-0.6c0.1,0,0.2,0.1,0.2,0.2l7.9,0.5
			C535.5,477.7,532.9,481.5,532.9,488z"/>
		<path class="st24" d="M394.9,68.2c-1.3,0-2.5-0.2-3.8-0.1c-1.8,0-1.9-0.7-1.1-2c0.1-0.2,0.3-0.3,0.4-0.5c1.3-0.7,2.5-1.6,3.7-2.6
			c1.3-1.1,0.6-2.6,0.9-4C396.6,62.1,394.9,65.2,394.9,68.2z"/>
		<path class="st25" d="M485.9,219.1c-0.3,2,0.7,4.3-0.8,6.1c-0.7-1.2-2.4-1.7-2.2-3.4c-0.9-1.1-1.2-2.4-0.1-3.4
			S485,218.1,485.9,219.1z"/>
		<path class="st26" d="M485.9,219.1c-2.8-1.1-3.4,0.3-3,2.7c-3.6-2-2.1-3.8,0.1-5.7c1-0.2,2.1,0.2,2.9,0.8l1.3,1.1L485.9,219.1z"/>
		<path class="st27" d="M257.9,492.1h-0.3h-0.3c-0.3-3.1-0.7-6.2-1-9.2C258.3,485.7,258.1,488.9,257.9,492.1z"/>
		<path class="st28" d="M395.1,70.1l2.8,2.6c0.4,3.6-1.3,3.4-3.6,1.9c-0.8-1.5-0.6-3.3,0.3-4.7L395.1,70.1z"/>
		<path class="st29" d="M395,74.8c1.7,0.3,2.8-0.2,2.9-2.1c2.2,1.8,0.9,4.2,1,6.3c-1.5-0.9-1.1-4.1-4-3.1
			C394.6,75.6,394.7,75.1,395,74.8z"/>
		<path class="st30" d="M491.7,495.9l0.3,1.1l-10.2-0.1c0-0.3,0-0.5,0.1-0.8c1-0.9,2.3-1.4,3.7-1.3c0.5,0,1.1,0,1.6,0
			C488.8,494.8,490.4,494.7,491.7,495.9z"/>
		<path class="st31" d="M252.9,457.8V451c0.3-0.3,0.5-0.3,0.8,0l0.3,6.7L252.9,457.8z"/>
		<path class="st32" d="M254.9,469c-1-1.4-1.2-3.3-0.6-4.9c1,1.4,1.5,3.2,1.3,4.9C255.4,469.5,255.2,469.5,254.9,469z"/>
		<path class="st33" d="M531.9,494.1c-1.6-1.8-1.7-3.3,1-4.1C532.6,491.4,532.3,492.7,531.9,494.1z"/>
		<path class="st34" d="M485.8,217c-1,0-2.1,0.1-2.9-0.8c0.4-0.9,1.2-1.1,2-1.2C485.9,215.3,486,216.1,485.8,217z"/>
		<path class="st35" d="M254.9,469c0.3,0,0.5,0,0.8,0l0.2,5c-0.3,0.5-0.6,0.4-0.9,0C255,472.4,255,470.7,254.9,469z"/>
		<path class="st36" d="M255,474h0.9c0.3,0.9,1.6,2.3,0,2.6C254.7,476.9,255,475.1,255,474z"/>
		<path class="st37" d="M380.9,106c3.4,1.7,6.8,3.6,10.2,5.1c4,1.7,5.2,4.5,5.1,8.7c-0.2,5-1.9,9.8-1.1,14.8c0.5,0.9,0.5,2-0.2,2.8
			c-5.8,9.5-10.7,19.5-16.3,29.1c-2.7,3-7.1,4.4-8.2,9c-0.7,2.7-1.2,5.1,0.2,7.7c0.9,2.4,3.1,2,4.9,2.5c6.4,1.5,12.9,1.7,19.4,2.9
			c0.7,0.4,1.3,1,1.6,1.8c0.6,3.8-2.1,4-4.6,4.1c-5.2,0.1-10.2-0.9-15.3-1.6c-5.6-0.8-6-0.5-8.1,4.7c-1.2,2.9-1.3,6.3-4.1,8.3
			c-4.4,1.4-8.6,0.1-12.7-0.9c-3.5-0.8-4.1-3.5-3.5-6.6c0.9-5.1,1.8-10.1,3.2-15.1c1-3.7,0.1-6-3.9-7c-4.2-1.1-8-3.3-12.1-4.6
			c-2.5-0.8-5-2-6.4-4.5c-8.7-3.9-11.4-8.1-9.9-17.1c2.1-12.6,6.8-24.3,12.5-35.6c1.7-3.3,4.8-5.7,8.5-6.4c3-0.7,6-1.8,9-2.8
			c1.7-1,3.8-0.9,5.6-1.7c3.1-1.5,5.1-0.7,7.1,2.1c4.2,5.9,8.7,5.6,12.9-0.4c0.3-0.4,0.6-0.8,0.9-1.1c0.9-0.6,1.8,0,2.6,0.2
			C379.2,104.6,380.4,104.8,380.9,106z"/>
		<path class="st4" d="M324.8,331.9c2.1-14.3,3.9-28.7,6.5-42.9c1.6-8.6-0.6-16.6-1.9-24.7c-2.6-16.7-3.8-33.4-1.3-50.2
			c0.2-0.8,0.4-1.6,0.6-2.4c6.1,2.6,12.1,5.4,18.2,8c4.8,2.1,5.8,3.9,4.4,9c-2.5,9.1-4.7,18.3-7.1,27.5c-2,7.7-2.8,15.4-1.1,23.2
			c1.5,6.9,1.3,13.9,1.5,20.9c0.4-2.1-2.1-4.8,1.6-6.2c2.1,5.5,1.2,11,0,16.4c-3.8,13.5-6.4,27.4-10.1,40.9
			c-0.7,2.7-1.1,5.6-3.6,7.4c-6.2-0.9-10.3,1.3-11.4,7.8c0,0.3-0.5,0.4-0.8,0.5l-0.7-0.3c0.8-10.6,1.6-21.1,2.4-31.7
			C323.5,334.5,323.8,332.9,324.8,331.9z"/>
		<path class="st1" d="M317.9,404v-0.7c0.1-2.2-0.2-4.4,0.5-6.5c0.3-1.9-0.5-3.9,0.5-5.7c0-0.3,0-0.5,0-0.8
			c-0.3-2.5,0.1-4.9-0.1-7.4c-0.6-2.3,0.2-4.5,0.6-6.8c1-2.4-0.5-5.4,1.7-7.6c8.4-1.7,16.9-0.7,25.4-0.6c2.1,0,3.3,1.5,3.7,3.5
			c1.3,7.7,3.1,15.3,2.9,23.2c-4.2,7-10.2,12.7-17.4,16.5c-6,0.1-12,1.4-17.8-0.8C317.1,408.3,317.2,406,317.9,404z"/>
		<path class="st38" d="M328.9,167.1c6.9,3.6,14.3,6.1,21.6,8.6c2.5,0.9,3.4,1.7,2.6,4.6c-1.5,5.9-2.4,12-3.8,17.9
			c-1,4,0.4,5.6,4.2,5.9c3.5,0.3,6.8,1.4,10.3,1c1.5,4.2-0.7,7.4-3,10.5c-11.3,0.4-22.1-0.9-31.9-7.3c-2.4-1-2.2-3-2-5
			c0.7-10.2,1.4-20.5,2-30.8C329.1,170.7,328.9,168.9,328.9,167.1z"/>
		<path class="st39" d="M329,208.3c10.2,3.9,20.9,6.1,31.8,6.6c1.3,1.7,0.6,3.6,0,5.3c-6.9,22.6-11.4,45.8-13.4,69.4
			c-0.1,1.6-0.1,3.4-1.6,4.5c-1.8,2,0.1,4.9-1.7,7.5c0-9.7-2.4-18.7-3-27.9c-0.9-14.1,4.7-27.1,7.8-40.6c0.1-0.6,0.4-1.3,0.6-1.9
			c2.3-7.8,2.3-7.8-5-10.8c-4.3-1.8-8.5-3.6-12.7-5.4c-1.4-0.6-2.7-1.3-2.9-3.1C328.8,210.6,328.9,209.5,329,208.3z"/>
		<path class="st40" d="M316.9,425l-0.1-1.1c-0.6-0.7-0.5-1.8,0.2-2.4l0,0c2.5-0.9,5.2-2.4,6.9,1.3c0.8,11.2,0.8,22.5,0,33.7
			c-0.2,0.6-0.5,1.2-0.9,1.6c-2.4,1.6-5.6,1.7-8.1,0.2c-1.3-1.9-1-4-0.9-6.1c0.7-2.5,0.3-5.1,0.4-7.7c0.6-1.9,0.4-3.9,0.5-5.8
			c0.8-2.7,0.3-5.5,0.5-8.3C316.2,428.7,315.4,426.6,316.9,425z"/>
		<path class="st41" d="M375.9,104.6L375.9,104.6c-5.9,5.9-14,4.3-16.5-3.3c0.6-4.7,1.1-9.4,1.7-14.1l2.9,3.9
			c2.9,4.6,7.1,8.4,12,10.8l0.2,0.3C376.4,103,376.8,103.9,375.9,104.6z"/>
		<path class="st42" d="M323,422.2c-2-1-4,0.3-5.9-0.2c-1-0.9-0.8-2-0.2-3c0-0.7,0-1.5,0-2.2c0.4-1.7-0.5-3.5,0.8-5.1
			c0.4-0.3,0.9-0.5,1.4-0.6c4.6-0.2,9.2-0.2,13.8,0.1c0.9,0.2,1.4,1.1,1.1,2c-0.1,0.3-0.3,0.6-0.5,0.8
			C330.6,417.4,327.6,420.9,323,422.2z"/>
		<path class="st43" d="M357.9,70c2-2,4.2-4.5,7.2-2.1c3.3,2.6,2.6,6.5,1.3,9.6c-1.4,3.4-4.3,0.7-6.5,0.4
			C358.2,75.6,357,73,357.9,70z"/>
		<path class="st44" d="M359.4,101.2c4.7,6.2,9.1,7.1,16.5,3.4c-0.6,3.8-3.1,5.7-6.6,6.3c-3.4,0.6-6.8-0.3-8.1-3.4
			c-2.1-5-5.2-4.2-8.9-2.8c-1.1,0.3-2.2,0.5-3.4,0.5C351.7,101.9,356.2,103.3,359.4,101.2z"/>
		<path class="st1" d="M318,385.1c-0.7-0.4-0.2-1.5-0.5-1.7c-4.4-3.1-0.7-4.5,1.2-6.3c1.3,1.8,0.4,3.8,0.6,5.6
			C319.2,383.6,319.9,385.1,318,385.1z"/>
		<path class="st45" d="M324.8,331.9c-0.3,1.6,1.5,4.9-2.7,3.3c-0.3-2.2-0.5-4.3,0.7-6.4c0.9,0.4,0.4,1.5,1.1,2L324.8,331.9z"/>
		<path class="st46" d="M318.8,397c0.2,2.2,0.5,4.4-0.8,6.4c-1.8-2.1-1.1-4.2,0-6.3C318.1,396.6,318.4,396.5,318.8,397z"/>
		<path class="st47" d="M319,372.2c-0.1-2-1.6-2.6-3.1-3.1c-1.1-0.4-2.4-0.6-1-2.1c1.6,1.3,3.8-0.2,5.3,1.2
			C320.2,369.7,321.4,371.5,319,372.2z"/>
		<path class="st48" d="M316,412c-1.5,0-3.1,0.4-5-0.8c1.9-1.8,4-0.7,5.7-1.4C317.7,411,316.9,411.5,316,412z"/>
		<path class="st49" d="M319,372.2c1-1.1,0.6-2.5,0.7-3.8c0-0.2,0-0.5,0-0.7c0.4-0.1,0.9-0.1,1.3,0.1c0.3,0.4,0.3,0.9,0.1,1.3
			c-0.5,2.3,0,4.8-1.3,7c-0.2,0.4-0.5,0.4-0.8,0L319,372.2z"/>
		<path class="st50" d="M318,385.1c0.3-0.7,0.6-1.4,0.9-2c0.3-0.4,0.5-0.5,0.9,0c0.3,2.4,0,4.9-0.8,7.2
			C317,388.8,318.5,386.8,318,385.1z"/>
		<path class="st51" d="M316.9,425c-0.1,1.7,0.3,3.6-0.9,5.1c-0.4-0.2-0.7-0.5-0.9-1c0-1.3-0.1-2.7-0.1-4L316.9,425z"/>
		<path class="st52" d="M316,412c0.3-0.7,0.5-1.4,0.7-2.1c0.6-1.9-0.8-4.2,1.2-5.8l0.1,6c0.5,0.6,0.5,1.5,0,2.1l0,0
			C317.5,412.7,316.6,412.6,316,412C316.1,412.1,316,412,316,412L316,412z"/>
		<path class="st48" d="M316,412l2,0.1c-0.3,1.6,0.5,3.4-1,4.7C315.6,415.4,315.9,413.7,316,412z"/>
		<path class="st53" d="M319.8,383c-0.3,0-0.6,0-0.9,0c-0.1-2-0.1-4-0.2-6c0.1-0.3,0.2-0.6,0.4-1c0.3,0,0.5,0,0.8,0L319.8,383z"/>
		<path class="st54" d="M318.8,397c-0.3,0-0.6,0-0.9,0.1c0.4-2-1-4.3,1-6C318.9,393,318.8,395,318.8,397z"/>
		<path class="st55" d="M323.8,331c-0.4-0.7-0.7-1.4-1.1-2c0.1-0.8,0.1-1.5,0.3-3C324.4,328,323.7,329.5,323.8,331z"/>
		<path class="st56" d="M319.7,368.4c-1.5-0.9-3.7,0.8-4.8-1.4h4.9c0.2-0.1,0.4-0.1,0.6,0c0.2,0.3,0.1,0.7-0.2,0.9
			c0,0-0.1,0-0.1,0.1C319.9,368.1,319.8,368.3,319.7,368.4z"/>
		<path class="st57" d="M316.9,419l0.2,3c-0.1,0.6-0.1,1.3-0.2,1.9C315.3,422.3,315.3,420.7,316.9,419z"/>
		<path class="st58" d="M244.9,394.9l-40.7-13.5l0.4-1.1l40.4,12.8c0.5,0.4,0.6,1.1,0.2,1.6C245,394.8,245,394.9,244.9,394.9z"/>
		<path class="st59" d="M250.9,435c-1.9-7.5-1.7-15.2-3-22.7c-0.4-2.4-0.6-4.9-0.9-7.3c0.3-0.5,0.6-0.5,0.9,0
			c1.9,2.1,0.4,4.8,1.3,7.1c1.7,0.2,2.1-1.8,3.5-2.2l0.2,0.2c-5.6,6.4-1.8,13.7-1.7,20.6c0,1.5,0.3,2.9,0.5,4.4
			C251.5,435.5,251.2,435.5,250.9,435z"/>
		<path class="st60" d="M259.9,400.9l12-13.6C268.8,392.7,265.3,397.6,259.9,400.9z"/>
		<path class="st61" d="M243.8,364.1c-0.3,5,1.7,9.9,1.1,14.9c-0.1,0.2-0.5,0.3-0.7,0.1c-0.1,0-0.1-0.1-0.1-0.1
			c-0.4-4.7-0.8-9.3-1.2-14C242.5,364.1,242.9,363.9,243.8,364.1z"/>
		<path class="st62" d="M252.8,409.9c0.9-2.9,3.3-4.5,5.7-6.2c-1.2,2.6-3.1,4.8-5.4,6.4L252.8,409.9z"/>
		<path class="st63" d="M247.9,405H247c-0.4-3.3-0.8-6.6-1.3-9.9c0.2-0.3,0.7-0.4,1-0.2l0.1,0.1C247.8,398.3,248.2,401.6,247.9,405z
			"/>
		<path class="st64" d="M244.1,379h0.8c1.9,2.5,0.6,5.3,1.1,8c0.5,1.1,0.8,2-1,1.9L244.1,379z"/>
		<path class="st65" d="M253.7,451H253c-2-2.4-0.7-5.3-1.1-8c-0.4-1,0.1-1.2,1-1L253.7,451z"/>
		<path class="st66" d="M243.8,364.1l-1,1c-1.2-1.2-1.3-3.1-0.4-4.4C244.2,361.4,243.8,362.8,243.8,364.1z"/>
		<path class="st67" d="M246.9,395h-1.1c-0.3,0-0.6-0.1-0.8-0.2V393l0.9-1.1c-0.5-1.1-0.8-2,1-1.9
			C246.9,391.8,246.9,393.4,246.9,395z"/>
		<path class="st68" d="M252.8,442.1l-1,1c-1.1-0.8-0.9-2-0.8-3.1c0.2-0.4,0.6-0.8,1-0.9C253.1,439.8,252.9,441,252.8,442.1z"/>
		<path class="st69" d="M246.8,390.2l-1,1.9c-1.1-0.8-0.9-2-0.8-3.1l1-1.9C247.1,387.8,246.9,389,246.8,390.2z"/>
		<path class="st70" d="M252,439l-1,0.9c0-1.6-0.1-3.3-0.1-4.9c0.3,0,0.6,0,0.9,0C251.9,436.4,251.9,437.7,252,439z"/>
		<path class="st71" d="M410.7,271.1c1,2.9,4,3.3,6.2,4.5c8.6,4.7,17.3,9.1,25.9,13.8c5.7,3.1,11,2.9,16.2-1c1.5-1,3.1-1.9,4.8-2.6
			c2.6,5.2,2.5,10.9,2.5,16.5c0.1,31.1-2.1,62.1-6.6,92.9c-3.5,15.2-6.4,30.5-11.3,45.4c-3.9,11.8-8.9,23.2-15.1,34
			c-4.7,0-9.4,0.3-14.1-0.8c-3.6-3.3-4-8.1-6-12.2c-1.3-3.2-2.5-6.5-3.4-9.8c-0.2-0.8-0.4-1.7-0.4-2.5c-0.4-14.8,0-29.6-0.2-44.4
			c0-2.5,1.2-5.7-2.3-6.9s-6.1,0.2-8.1,3.2c-2.9-0.5-2.9-3-3.2-5c-3.2-19.5-5.6-39.2-7.6-58.9c-1.9-18.9-1.1-37.9-2.5-56.8
			c-0.3-5.6,0.2-11.3,1.5-16.8c3.5-2.9,6.5-0.3,9.6,0.8c2.5,3.6,5.8,5.7,10.4,5.4C408.5,269.6,409.8,270.1,410.7,271.1z"/>
		<path class="st71" d="M451.6,230c4.9,9.3,10.8,18,16.3,27c0.1,1.7-1,2.7-2.1,3.8c-5.5,5.1-10.5,10.6-15.1,16.5
			c-1.9,2.5-3.6,1.6-5.6,0.7c-8.5-3.8-16.9-7.6-25.4-11.4c-1.8-0.8-3.5-1.8-5.6-1.7c-1.9-0.2-2.7-1.3-2.7-3.1
			c0.3-0.7,0.8-1.3,1.5-1.6c12.3-4.6,18.7-17.6,14.8-29.9c-3.7-12.2-16.4-19.2-28.7-15.9c-0.8,0.2-1.6,0.5-2.4,0.6
			c-0.8,0.2-1.6,0.1-2.5-0.1c-2.8-1.3-1.9-3.7-1.5-5.6c1-6.7,2.5-13.3,4.6-19.7c2.3-1.3,4.9-1,7.3-1c9.3,0.2,18.6-0.4,27.8-1.6
			c2.1-0.3,4.3-0.6,6.2,0.9c2.8,2.3,5.6,4.6,4.4,8.9c6.6,5.7,2.9,14.8,7,21.3c1.9,0.9,2.1,2.5,1.5,4.1c-0.8,2-2.3,1.3-3.9,0.7
			C448,225.9,451.3,227.1,451.6,230z"/>
		<path class="st72" d="M473,280c3.4-4.6,7.6-8.4,12.4-11.4c1.6,4.3-0.6,8.3-0.6,12.3c0.3,14.3,0.1,28.5-0.9,42.8
			c0,1.5-0.4,3-1.1,4.3c-4.6,1.9-8.3-1.6-12.5-2.2c-4.1-1-5.1-3.3-4.6-7.6c1.2-11.3,3.3-22.3,4.9-33.4
			C470.8,283,471.7,281.3,473,280z"/>
		<path class="st40" d="M473,280c-2,12.3-3.9,24.5-6.2,36.7c-0.8,4.2-0.1,6.9,4,8.2c1.7,2.9,0.6,5.9,0.3,8.7
			c-1.6,13.5-3.3,27-4.9,40.5c-0.3,3.6-1.1,7.2-2.4,10.5c-0.7,4.8-1.3,9.5-2,14.3c-2,0.2-2.8-0.9-3-2.7c-1.2-5.6,0.8-11.1,1.3-16.6
			c1-10,2.1-20,2.9-30.1c1.3-16.2,2-32.4,1.8-48.6c-0.1-5.1-0.7-10.2-1-15.3C466.8,283.8,468.9,280.3,473,280z"/>
		<path class="st73" d="M463.8,384.8c1.7-20,4.4-39.9,7.1-59.8c4.2,0.4,7.8,3,12,3.1c4.1,1.9,8.7,1.9,13,3c-2.9,2.7-6.5,3.9-10.1,5
			c-5,1.4-7.4,4.8-8.8,9.4c-4,13.2-8,26.3-12,39.4C464.2,387.5,464.1,385.4,463.8,384.8z"/>
		<path class="st74" d="M411.7,261.9l2.5,3l-3.4,6.3c-2,0-4,0-5.9-0.1c-4.2-0.2-7.3-1.7-8.2-6.2c-2-1.4-3-3.4-1.3-5.4
			s3.8-0.8,5.1,0.8c2.2,2.6,4.6,2.7,7.5,1.5C409.2,261.2,410.5,260.9,411.7,261.9z"/>
		<path class="st4" d="M438.5,187.9c-13.8,1.8-27.7,2.5-41.6,2.1c-0.4,0.6-0.6,0.6-0.8-0.1l-1.5-0.7c3.5-18.9,5.1-38,7.9-57.1
			c0.5-3.8,1.3-7.5,2.4-11.1c2.6-2.1,2.5,1.1,3,1.8c6.8,10.5,12.4,21.8,18,33c0,1-0.2,2-0.4,3c-0.8,5.9,0.2,7.7,6.5,11.2
			C434.4,175.9,437.6,181.4,438.5,187.9z"/>
		<path class="st75" d="M404.9,121c0.5,7.6-1.4,14.9-2.3,22.3c-1.4,11.8-2.9,23.6-4.9,35.3c-0.6,3.6,1,8-3.1,10.6
			c-8,0.1-15.8-1.7-23.6-3.1c-2.4-0.4-2.7-1.4-1.4-3.3c2-1.6,4.1-0.7,6.2-0.3c1.8,0.4,3.5,1,5.4,1c2.1,0,4.2-0.6,4.9-2.7
			c0.8-2.4-1.7-2.8-3.1-3.8c-0.7-0.4-1.5-0.8-2.2-1.1c-6.1-3.2-6.3-3.6-3-9.8c5.2-10.8,11.5-21.1,17.4-31.5L404.9,121z"/>
		<path class="st76" d="M432,170c-3.2,0.3-5.9-0.4-7.1-3.8c-1.2-3.6-2.5-7.2,0.9-10.4c2.8-0.1,6.5-0.6,7.5,2.4
			C434.7,162,435,166.4,432,170z"/>
		<path class="st77" d="M451.6,230c-3.3-2.2-5.6-5.6-6.4-9.4c2.6-0.9,3.2,3.2,5.1,1.9c1.5-1,0.5-3-0.4-4.5c0.1-2.4,1.2-1.9,2.4-0.8
			c2.6,2.2,4.2,5.4,4.4,8.9L451.6,230z"/>
		<path class="st78" d="M393.9,81.9L396,82c-1.1,0.9-2.6,1.5-2.9,3.2l-2.2-2c-1.8-1.1-2.8-3-2.9-5c-1.8,3.2-4,4.8-6.9,4.5
			c-3.3-0.3-4.6-2.9-5.5-5.7c-0.7-2.2-4-2.1-3.9-4.8c0.6-0.7,1.5-1.1,2.4-1c1.3,0.1,2.6,0.4,3.8,0.9h1c1.2,1.3,0.3,2.9,0.8,4.3
			c0.4,1.2,0.9,2.3,2.3,2.3s1.9-1.1,2.3-2.3c0.8-2-0.9-4.3,0.5-6.3c2,1,2.9,5.3,6.3,1.9C392,75.3,390.5,79.3,393.9,81.9z"/>
		<path class="st79" d="M380.9,106l-3-1.2c0-0.8,0.1-1.4,1.1-0.8l3.2,0.9L380.9,106z"/>
		<path class="st6" d="M491.7,495.9h-4.9c-1.9-2.1-1.5-4.7-1.5-7.1c0-16.8-0.1-33.6,0-50.5c0.1-7.9,0.5-15.7-5.3-22.1
			c-0.2-4.8-1.4-9.8,1.7-14.2c4.1,3.7,7.2,8.3,10.9,12.4c2,7.2,2.6,14.7,3.8,22.1c2.2,13.5,4.3,26.9,6.2,40.4c0.3,1.8,2,2.8,1.6,5
			c-1,4.4-1.1,9-7.4,9.4C494.3,491.3,492.2,493.3,491.7,495.9z"/>
		<path class="st80" d="M458.8,396.4l3,2.7c0.3,9.3,0.6,18.7,0.9,28c-1.7,15.3-5.2,30.4-7.5,45.6c-0.5,2.9-0.4,6-2.6,8.4
			c-0.9,0.7-2.2,0.9-3.3,0.4c-5.2-2.3-11-3.4-15.4-7.4c-1.4-1.8,0.1-3.1,0.8-4.5c11.7-21.5,17.7-44.9,22.2-68.8
			C457.2,399.1,457.1,397.4,458.8,396.4z"/>
		<path class="st6" d="M433.9,474l18,7c4.7,0.7,9.3,1.4,12.1,5.9c-2.5,0.8-4.9,1.7-7.4,2.5c-3.1,1.1-5.5,2.9-6,6.4l-39.7,0.1
			c-2.1-2.3-1.7-5.2-1.6-7.9c0.2-5-1.1-10.1,1.2-15c2.5-1.9,5.9-1.9,8.4,0C423.9,473.3,429,472.4,433.9,474z"/>
		<path class="st81" d="M464,486.9c-3.6-2.8-8.3-3.4-12.1-5.9c2.4-8.7,3.2-17.8,5-26.6c1.9-9.1,2.5-18.5,5.8-27.3
			c1,14.9,2.1,29.8,3.2,44.7c0.2,3.2,0,6.2,2.2,9.4C470.4,484.6,467.6,486.5,464,486.9z"/>
		<path class="st82" d="M480.2,416.2c5.4,3.5,7.1,8.2,6.9,14.7c-0.5,21.6-0.2,43.3-0.2,65h-1.1c-1.3-0.6-2.8-0.4-4.1-1.1
			c-0.7-6.2-0.6-12.4,0.2-18.5c0.9-8.3-0.3-16.9-0.5-25.3C481,439.4,480.6,427.8,480.2,416.2z"/>
		<path class="st83" d="M492.8,414.4c-5.3-2.6-8.1-7.5-10.9-12.4c0.9-3.8,2.2-7.5,3.9-11c1.7-1.2,3.3-1.4,5,0c0.1,3,0.2,6,0.4,9
			C491,404.9,493.3,409.5,492.8,414.4z"/>
		<path class="st84" d="M490.8,391h-5c0.8-4.3,2.5-8.4,5-12V391z"/>
		<path class="st85" d="M481.7,494.8c1.6-0.7,2.9,0.1,4.1,1.1l-3.9,0.1C481.8,495.6,481.8,495.2,481.7,494.8z"/>
		<path class="st86" d="M521,422.9c5.8,2.6,10.3,7,15.4,10.5c2.2,1.5,3,1.8,3.8-1.3c0.7-2.7-0.3-5.7,1.6-8c0.3-0.5,0.6-0.5,0.9,0
			c-1,5.9-1.9,11.7-2.8,17.6c-0.5,3.6,0.2,4.9,4.2,2.9c7.8-4,15.8-7.6,23.8-11.3c0.4,2-1.3,2-2.3,2.4c-7.6,3.7-15.3,7.3-22.8,11
			c-1.5,0.8-3.7,1-3.9,3.4c-0.4,0.3-1,0.3-1.3-0.1l0,0c-1.5-2.4-0.6-4.9-0.2-7.3c0.8-3-0.5-6.1-3.2-7.7c-3.5-2.3-6.9-4.7-10.2-7.3
			c-1.4-1.1-3.1-2-3.4-4.1C520.8,423.4,520.9,423.1,521,422.9z"/>
		<path class="st87" d="M537.8,450h1c-1.4,9.3-2.7,18.6-4.1,27.9l-1.8,0.4l-0.1-0.2c-0.5-9,1.7-17.7,3.3-26.4
			C536.4,450.9,537,450.2,537.8,450z"/>
		<path class="st86" d="M514.9,419h2l4.1,3.9l-0.2,0.2C517.5,423.7,515.5,422.5,514.9,419z"/>
		<path class="st88" d="M542.8,424h-0.9c0.2-2-0.6-4.3,1.5-6.9C543.1,420,543,422,542.8,424z"/>
		<path class="st6" d="M311,480.2c0.7-5.8-2.4-11.6,0.3-17.5c0.3-0.7-1.5-2.3-2.3-3.5c1.3-1.1,2.7-0.6,4.1-0.4
			c1.1,1.1,1.2,2.6,1.2,4c-0.1,2.8-1.3,5.4-0.9,8.3c-0.1,2.3,0.1,4.5-0.2,6.8C312.8,479,312.5,480.1,311,480.2z"/>
		<path class="st89" d="M314.8,452l0.3,5.9c-0.2,0.3-0.5,0.5-0.9,0.4l-0.3-0.4c-1.8-2.3-1.1-4.6-0.1-6.9
			C314.5,451,314.4,451.6,314.8,452z"/>
		<path class="st90" d="M315.7,438.9c0.3,1.8,0.4,3.6-0.7,5.3c-0.6-0.1-0.7-0.7-1-1c-0.2-2.1-0.4-4.2,0.8-6.2
			C315.7,437.3,315.2,438.4,315.7,438.9z"/>
		<path class="st91" d="M311,480.2c0.3-0.7,0.6-1.4,0.9-2.1c0.4-0.3,1-0.3,1.4,0.1c1.2,2.4,0.8,4.6-0.8,6.6
			c-0.4,0.4-0.9,0.5-1.4,0.3C311,483.5,311,481.8,311,480.2z"/>
		<path class="st92" d="M315.7,438.9c-0.3-0.6-0.6-1.3-0.9-2c0.1-2.6,0.2-5.2,0.3-7.8l0.9,1L315.7,438.9z"/>
		<path class="st93" d="M314,443.1l1,1c-0.1,2.6-0.2,5.2-0.3,7.8l-1-1L314,443.1z"/>
		<path class="st94" d="M312,496h-2.2c0.4-1.3-0.2-2.9,1.1-3.9c0.4-0.4,1.1-0.3,1.4,0.1l0,0C313,493.4,312.9,494.9,312,496z"/>
		<path class="st95" d="M311.8,492c-0.3,0-0.6,0-0.9,0.1c0.1-2.3,0.1-4.6,0.2-7c0.3,0,0.5,0,0.8,0
			C313.7,487.4,313.8,489.7,311.8,492z"/>
		<path class="st96" d="M312.8,459.2h-3.9c0.6-2.8,2.7-0.7,4-1.1c0.2,0.2,0.3,0.5,0.2,0.8C313,459,312.9,459.2,312.8,459.2z"/>
		<path class="st97" d="M312.8,459.2c0-0.4,0-0.7,0.1-1.1l1-0.2l-0.1,0.4c0.4,0.3,0.7,0.7,0.9,1.1c0.4,1.2,0.2,2.5-0.4,3.5
			c-0.4,0.3-0.9,0.3-1.3,0.1C312.9,461.7,312.9,460.5,312.8,459.2z"/>
		<path class="st5" d="M514.9,419c1.5,2,3.5,3.4,5.9,4.1c4,4.6,9.2,7.6,14.2,10.8c3.9,2.5,4.5,5.5,3.6,9.2c-0.5,2.3-0.8,4.6-0.8,6.9
			c-2.2,8-2.5,16.2-4,24.3c-0.3,1.3-0.7,2.5-1,3.8c-6,0.1-10.9-3.4-16.5-4.8l-5.6-53.3C512,419.3,513.5,419,514.9,419z"/>
		<path class="st98" d="M510.8,385.9c1.4,1.8,3.3,0.9,5.1,1.1c0.5,2.4-2,2.8-3,4.2l-2,1.8C509.2,390.7,509.9,388.3,510.8,385.9z"/>
		<path class="st99" d="M495.1,224.3c-3.1-1.5-2.6-3.3-0.3-5.1C496.6,220.9,496.6,222.6,495.1,224.3z"/>
		<path class="st100" d="M374.9,72h-3c-0.4,0.7-0.8,1.4-1.8,0.9c-0.1-1.5-0.3-3-0.3-4.4c0-11.5,8.3-16.8,19.1-12.7
			c2.6,1,2.8,3.4,4.2,5.1c0.4,2.6,0.3,4.9-3.2,5.1l0,0h-3.1c-2.6,2.1-6.3-0.1-8.9,1.9c0,0.7,0,1.4,0,2.1
			C377.3,71.4,376,71.6,374.9,72z"/>
		<path class="st101" d="M370.1,73l1.8-0.9c2.2,2.2,5.1,3.3,6.1,7.1s5.2,3.8,7.7,0.5c0.9-1.5,1.8-3,2.5-4.6c0.3,2.8,1.2,5.5,2.6,8
			c-4.1-0.5-8.2,0-12.1,1.4c-5.2,1.9-6.6,1-8-4.3C370,77.9,369.7,75.4,370.1,73z"/>
		<path class="st102" d="M376,101.8c-6.6-0.7-10-5.1-12-10.8C367.7,94.9,373.6,96.4,376,101.8z"/>
		<path class="st103" d="M386,88.7c1.1,0.1,2.1,0.4,2,1.7c0,0.9-0.8,1.7-1.7,1.6c-0.1,0-0.3,0-0.4-0.1c-1-0.2-1.8-1.1-1.7-2.1
			C384.3,88.8,385.3,88.9,386,88.7z"/>
		<path class="st20" d="M389.9,66.1c3-0.5,1.9-3.5,3.2-5.1l0.9,2C394.3,66.2,392.1,66.2,389.9,66.1z"/>
		<path class="st104" d="M379,104l-1.1,0.8l-2.1-0.2c0.1-0.8,0.2-1.6,0.3-2.4L379,104z"/>
		<path class="st105" d="M512.9,391.2l3-4.2c2.8-1.4,4.2-4.6,7.5-5.9c-0.4,2.5-2.8,3.1-3.5,4.9C517.2,387.3,516,390.6,512.9,391.2z"
			/>
		<path class="st106" d="M24.9,364.5c0.1,4.5-3.4,8.3-7.9,8.5c-4.7,0.2-8.7-3.4-9-8.1c0-0.1,0-0.3,0-0.4c0.2-4.5,3.8-8.1,8.2-8.4
			C21,356.1,24.8,359.9,24.9,364.5z"/>
		<path class="st107" d="M495.9,240.1c0.3-1.9,1.4-2.4,3.4-1.6C498.6,240.3,497.1,239.9,495.9,240.1L495.9,240.1z"/>
		<path class="st108" d="M324.1,495.9H323c-0.9-0.8-1.4-1.9-1.4-3.1c-0.1-11-0.9-22,0.5-32.9c0.3-0.6,0.7-1.1,1.3-1.4
			c7.7-1.4,15.6-1.4,23.3-0.1c3,3.8,1.9,8.5,2.6,12.8c0.7,4,1,8.2,2,12.2c0.4,1.7-0.7,2.5-2,3C340.9,489.7,333,494.1,324.1,495.9z"
			/>
		<path class="st108" d="M398.9,401c-0.9-7,4.3-4.8,7.8-5.2c4.4-0.6,4.2,2.2,4.2,5.3c-0.1,16.3-0.1,32.6-0.2,48.9
			c-0.7,0.1,0.2,0.1-0.5,0.2c-8.8,1.4-8.8,1.4-8.8,10.5c0,9.5,0,19,0,28.5c0,2.3,0.3,4.7-1.5,6.6h-1c-1.8-1.9-1.5-4.3-1.5-6.6
			c0-5.5-0.2-11,0.1-16.4c-0.3-22.1-0.1-44.2-0.1-66.3C397.3,404.7,397.3,402.6,398.9,401z"/>
		<path class="st6" d="M398.8,473.1c0,7.6,0,15.2,0.1,22.8c-7.1,0-14.1-0.3-21.2,0.2c-5,0.4-7.3-0.8-6-6.1c-1.7-2.3-1.1-4.8-0.9-7.4
			c0.8-2.1,0.6-4.3,1-6.5c0.1-0.6,0.4-1.1,0.7-1.6c1.7-1.9,4-2.4,6.3-2.9c5-0.4,9.9-0.2,14.9-0.2
			C395.6,471.5,397.4,471.7,398.8,473.1z"/>
		<path class="st109" d="M399.9,495.9c0-13.3,0-26.6,0-39.9c0-7.4,0-7.5,7.5-6.9c1.1,0.2,2.2,0.5,3.3,0.9c0.1,0.7,0.2,1.4,0.3,2
			c1.2,5.2,1.7,10.5,1.5,15.8c-0.1,1.9-0.2,3.7-1.4,5.2c0,7.6,0,15.2-0.1,22.9H399.9z"/>
		<path class="st110" d="M324.1,495.9l26.8-11.8c5.6-4.3,12.2-6.4,18.8-8.4c0.7-0.1,1.4,0.2,1.7,0.8c0.5,1.6,0.6,3.3,0.2,5
			c-0.9,2.8,0.5,5.8-0.8,8.6c-0.3,5.6-3.5,6.3-8.4,6.1C349.7,495.7,336.9,495.9,324.1,495.9z"/>
		<path class="st6" d="M322.9,459.2c0,12.2,0,24.5,0.1,36.7l-11,0.1l-0.2-4c0-2.3,0.1-4.6,0.1-6.9c0.8-2.2,1.1-4.6,0.9-7
			c-0.7-2.2-0.2-4.5-0.3-6.8c0.3-2.8,0.7-5.5,1.3-8.3l0.3-3.8C316.9,458.3,320,458.2,322.9,459.2z"/>
		<path class="st111" d="M370.9,490c0-3,0.1-5.9,0.2-8.9c0.9-0.3,1.4,0,1,1l-0.3,7.9C371.5,490,371.2,490,370.9,490z"/>
		<path class="st112" d="M117.4,442.4c-0.2,1.7-1.1,2.8-2.9,2.6c-1.3,0.1-2.5-1-2.5-2.3c0-0.1,0-0.1,0-0.2c-0.2-1.4,0.7-2.7,2.1-2.9
			c0.2,0,0.3,0,0.5,0C116.3,439.6,117.3,440.7,117.4,442.4z"/>
		<path class="st113" d="M384.9,70c0.4,2.1,1.4,4,1,6.3s-1.8,4.2-4.1,4.3s-3.2-2.3-3.5-4.2c-0.3-1.3,0.4-2.8,0.7-4.3
			c0.3-0.7,0.6-1.3,0.9-2C381.4,69.2,383.3,69.2,384.9,70L384.9,70z"/>
		<path class="st114" d="M393.9,81.9c-5.9-1.9-3.9-6.1-2.8-10l3.5-2c0.1,1.6,0.3,3.2,0.4,4.8l-0.1,1.2
			C393.9,77.8,394,79.9,393.9,81.9z"/>
		<path class="st115" d="M377.9,68c2.4-3.5,5.9-1.7,8.9-1.9C384.6,69.9,380.9,67.2,377.9,68z"/>
		<path class="st116" d="M384.9,70.1h-5.1C381.5,68.6,383.2,68.5,384.9,70.1z"/>
		<path class="st101" d="M374.9,72l3-2c0,0.7,0,1.3,0,2C377,72.6,375.8,72.6,374.9,72z"/>
		<path class="st117" d="M398.8,473.1l-21.2-0.2c-2.8-1.2-3.5-3.9-4.6-6.3c-0.3-1.2-0.5-2.5-0.4-3.7c0-1.3,0.1-2.6,0.4-3.8
			c0.5-1.7,0.7-3.6,0.5-5.4v-4.8c-0.1-2.5,0-5,0.3-7.4c0.6-2.1,0.8-4.2,0.7-6.3c0-1.9,0-3.7,0.2-5.6c0-0.5,0.1-1,0.3-1.5
			c0.5-1.8,0.7-3.6,0.6-5.4c0.1-2.7-0.2-5.4,0.3-8.1c0.6-1.8,0.8-3.7,0.6-5.6c-0.1-2.5,0-5,0.4-7.4c0.6-1.8,0.8-3.7,0.6-5.6
			c0.1-2.8-0.2-5.5,0.3-8.3c0.5-1.6,0.7-3.2,0.7-4.8c0.1-2.7-0.2-5.5,0.3-8.1c0.5-1.7,1-3.5,0.3-5.3c-1.6-1.4-3.5-0.8-5.2-0.8
			c-6.8-0.1-13.6,0-20.3,0c-2.1,0-4.4,0.3-6.1-1.4c-1.7-5.1-1.7-10.5-2-15.7c-0.8-13.4-1.9-26.8-0.5-40.2c0.8-5.6,1-11.3,0.8-17
			c1.8-26.9,6.8-53.4,15-79.1l3.1-9.9c1.6-3.9,3.3-7.9,4.7-11.9c0.8-2.4,2-2.9,4.4-2.5c6.5,1,13.1,1.6,19.6,2.4
			c2.5,0.3,3.7-0.6,3.5-3.2c0.3-0.1,0.6-0.1,0.8,0.1c0.6,6.1-1.8,11.7-2.6,17.6c-0.3,2-2.4,4.7,0.7,6.5c0,1.8-1.5,2-2.7,2.3
			c-11.3,3.5-16.7,11.5-17.4,23c-0.5,8.6,3.6,14.8,10,20c1.2,1,3.2,1.3,3.1,3.5c-0.8,17.1-0.5,34.2,0.2,51.2
			c0.7,16.6,2.2,33.3,4.4,49.9c1.6,11.6,3.4,23.2,5.3,34.8c0.2,0.8,0.6,1.5,1,2.2L398.8,473.1z"/>
		<path class="st100" d="M377.8,166.1c-3.4,6.5,1.7,7.8,5.9,10c2,1,5.8,1.4,4.5,4.7c-1.2,3.1-4.5,4.9-7.8,4.1c-3.6-0.6-7-2-10.7-2.1
			c-2.1-3-0.6-10.4,2.8-13.1C374.1,168.4,376,167.3,377.8,166.1z"/>
		<path class="st1" d="M344.9,311.1c1.1,0.9,1,2,0.9,3.2c-0.5,12.5,0.5,24.9,1.1,37.3c0.2,5.1,1.4,10.2,0.9,15.3
			c-0.7,0.9-1.8,1.1-2.8,0.7c-2.8-2.9-5.7-5.3-9.9-6c-1.5-0.1-2.9-1.1-3.4-2.5c4.2-7.4,4.7-16,7-24S342.9,319.1,344.9,311.1z"/>
		<path class="st118" d="M331.8,359c2.8,0.9,5.6,2,8.4,2.8c2.7,0.8,4,2.7,4.7,5.2c0.3,0.4,0.2,1-0.2,1.3c-0.1,0.1-0.2,0.1-0.3,0.2
			c-7.8,0-15.6,0.5-23.3-0.3l-1-0.3c0-0.3,0.1-0.7,0.2-1c0.4-0.9,0.8-1.8,1-2.8C323.6,356.2,323.6,356.2,331.8,359z"/>
		<path class="st117" d="M321,368.2l23.8-0.3c11.2-0.6,22.5-0.2,33.7-0.2c2,1.3,1.2,3.3,1.3,5.1c-0.8,2.9-0.3,5.8-0.4,8.7
			c-0.6,1.9-0.3,3.9-0.9,5.8c-0.1,2.5,0,5-0.1,7.5c-0.8,2.1-0.1,4.5-0.9,6.6c-0.2,2.6,0.1,5.2-0.2,7.8c-0.3,0.9-1,1.5-1.8,1.9
			c-6.6,1-13.4,0.9-20-0.2c-3.4-4.3-3.8-9.4-3.5-14.6c-0.1-8.3-2.2-16.3-3-24.5c-0.3-2.8-2.1-2.5-3.9-2.5c-8,0-15.9,0-23.9,0
			C321,368.8,321,368.5,321,368.2z"/>
		<path class="st119" d="M351.9,396.1c1.9,4.4,2.2,9.2,3.2,13.8l-0.6,0.7c-5.6,1.3-11.4,1.3-17,0.1l-0.6-0.6L351.9,396.1z"/>
		<path class="st120" d="M318,412.1c0-0.7,0-1.4,0-2.1h18.9l0.2,0.4c-0.1,1.3-1.1,1.7-2.1,2.1c-0.4,0.1-0.8,0-1.1-0.3L318,412.1z"/>
		<path class="st1" d="M190.8,211.3c0.1-2.6-0.8-5.4,3.1-5c2.9,0.3,5.8,0.7,5.8,4.6c0,4.1-3.1,4.6-6.1,4.8
			C189.4,216.1,191.5,212.7,190.8,211.3z"/>
		<path class="st121" d="M333.8,412.2l1.2-0.3c2.1-0.6,4.2-1.5,6.3,0c1.1,1.3,1.7,2.9,1.8,4.5c1.4,11.8,3,23.6,4,35.5
			c0.4,4.8-0.8,6.2-5.5,6c-6.2-0.3-12.5,1.2-18.6-0.9c0-11.6,0-23.2-0.1-34.8C326.5,418.8,330.9,416.2,333.8,412.2z"/>
		<path class="st80" d="M323.1,457c6.2,0,12.3-0.2,18.5,0.1c3.7,0.1,4.8-1.3,4.4-4.7c-1.7-13.4-3.4-26.9-5-40.3
			c4.5-2.3,9.2-0.7,13.8-1c0.6,0.1,1.1,0.3,1.5,0.7c2.6,4,2.6,8.9,3.9,13.3c2.6,9.3,5.6,18.4,9,27.4c0.8,2,2.4,4.3-0.3,6.3
			c-7.2,0.9-14.5,0.9-21.7,0c-7.5-0.8-15.2-0.1-22.8-0.3c-0.6,0.1-1.2-0.2-1.5-0.8C322.8,457.4,322.9,457.2,323.1,457z"/>
		<path class="st122" d="M322.9,459.2H314c0-0.3-0.1-0.7-0.2-1l1.3-0.4l7.8-0.2c0,0.2,0.1,0.3,0.2,0.5v0.6L322.9,459.2z"/>
		<path class="st123" d="M362,69.4c-0.9,1.5-1.1,3.3-0.6,4.9C359.6,71.3,359.6,71.3,362,69.4z"/>
		<path class="st75" d="M387.9,262.9c-8.5-5.3-14.7-12.1-14.2-23c1.6-1.1,3.2-0.6,4.8-0.1c12.7,4,24.9,9.4,37.6,13.6
			c1,0.3,1.8,1,2.2,1.9c0.3,3.9-3.1,4.2-5.4,5.7l-1.3,0.8c-2.2,0.7-4.3,1.5-6.6,2c-1.6,0.4-3.6,1.2-4.5-1.4c-0.6-1.8-2.1-3.7-4-2.8
			c-2.5,1.2,0,3.4,0,5.1C393.6,264.9,390.9,263.5,387.9,262.9z"/>
		<path class="st124" d="M410.9,314.1c-0.5,3.7-2.5,5.9-6.2,5.8c-3.2-0.1-5.7-2.9-5.6-6.1c0.1-3,2.6-5.4,5.6-5.6
			C408.5,308.2,410.5,310.4,410.9,314.1z"/>
		<path class="st125" d="M411,290.3c-0.4,4.2-2.6,6.4-6.2,6.3c-3,0.1-5.5-2.2-5.6-5.2c0-0.2,0-0.4,0-0.6c0.1-3.6,2.3-5.9,6.1-5.8
			C408.9,285.1,410.4,287.5,411,290.3z"/>
		<path class="st117" d="M411,473.1c0-7,0-14,0-21c2.6,7,5.2,14,7.9,21H411z"/>
		<path class="st4" d="M417.9,256c-8.8-3.4-17.5-6.9-26.3-10.1c-5.9-2.1-11.9-3.9-17.9-5.9c-0.2-12,7.1-21.9,18.5-24.9
			c0.9-0.3,1.8-0.6,2.8-0.9l1.8-0.2c10.5-2.1,18.3,2.5,23.8,10.6c6.1,8.9,6.4,18.6,1.1,28.3C421,254.3,420.3,256.3,417.9,256z"/>
		<path class="st126" d="M417.9,256c6.9-7.8,7.9-16.7,4.3-26c-3.8-9.7-11.6-14.6-21.8-15.8c-1.1-0.1-2.3-0.2-3.5-0.2
			c12.6-4.9,26.3,1.3,31.6,14.2c5,12.3-1.2,27.8-13.1,32.6c-0.8,0.2-1.6,0.3-2.4,0.4C414.3,259.1,416.9,258.3,417.9,256z"/>
		<path class="st127" d="M313.8,463c0.3,2.7,0,5.5-0.9,8c-0.3,0.5-0.6,0.4-0.9,0c-0.3-2.8,0.4-5.4,0.9-8H313.8z"/>
		<path class="st128" d="M312,471.1h0.9l-0.1,7H312V471.1z"/>
		<path class="st109" d="M371,476.1l-20,8c-4-1.9-2.3-5.9-2.6-8.7c-0.7-5.3-2-10.7-1.4-16.2c7.2-1.5,14.6-0.3,21.8-0.7
			c0.6,0,1.2,0,1.8,0c1.8,0.9,2.3,2.6,2.4,4.4c0,1.1,0,2.3,0.1,3.4c0.4,3.1,0.6,6.2-0.6,9.2c-0.1,0.5-0.6,0.7-1.1,0.6
			C371.2,476.2,371.1,476.1,371,476.1z"/>
		<path class="st129" d="M369.9,458.8l-23,0.4l-23.9-0.4c-0.1-0.2,0-0.4,0-0.6l46.7-0.5l0.4,0.5L369.9,458.8z"/>
		<path class="st130" d="M374,466.9l3.7,6L373,475c-1.2-1.7-0.3-3.6-0.6-5.4C372.7,468.6,373,467.5,374,466.9z"/>
		<path class="st131" d="M371,476.1c0.3-0.1,0.6-0.3,0.9-0.4c0.3-0.2,0.7-0.1,0.9,0.1c0,0,0,0.1,0.1,0.1c0.2,2.1,0.5,4.3-0.8,6.2
			l-1-1C371,479.5,371,477.8,371,476.1z"/>
		<path class="st132" d="M372.8,475.9c-0.3,0.1-0.7,0-0.9-0.2c0.1-3.2,0.1-6.3,0.2-9.5c2.2,0.3,1.1,1.7,0.9,2.8c0,2,0,4,0,6
			C372.9,475.3,372.8,475.6,372.8,475.9z"/>
		<path class="st117" d="M369.8,457.7c-6.3-14.6-10.9-29.9-13.9-45.5c6.4-2.3,12.9-0.9,19.4-0.8c0.9,0.4,1.3,1.3,1.1,2.2
			c-0.2,2.5-0.1,5-0.1,7.5c-0.7,2.2-0.4,4.5-0.5,6.8v1.1c-1.1,2-0.3,4.1-0.5,6.1c-0.2,2.1-0.5,4.2-1,6.3c-0.1,2.5,0,4.9,0,7.4
			c-0.6,2.5-0.4,5-0.6,7.6c-0.5,2.3-1.9,2.8-3.9,1.7V457.7z"/>
		<path class="st133" d="M378.7,368.2l-33.9-0.4c0-0.3,0-0.6,0.1-0.9l3-0.1c10.4,0,20.8,0.1,31.2-0.2c2.7-0.1,1.5,1.3,1.7,2.2
			C379.8,369.6,379.4,368.4,378.7,368.2z"/>
		<path class="st134" d="M377,401.1c-0.1-2.1-0.5-4.2,0.8-6.1c0.4,0.2,0.7,0.6,0.9,1c0.2,1.8,0.5,3.6-0.8,5.1
			C377.7,401.5,377.4,401.5,377,401.1z"/>
		<path class="st135" d="M381.8,355v5.9c-2.5-2.2-2.2-4-1-5.8C381.1,354.6,381.4,354.5,381.8,355z"/>
		<path class="st136" d="M373.1,456.1c-0.4-2.4-0.1-4.8,0.8-7c0.3-0.4,0.6-0.5,0.9,0c0,1.6,0,3.1,0,4.7c-0.3,0.8-0.5,1.5-0.6,2.3
			C373.8,456.4,373.4,456.4,373.1,456.1z"/>
		<path class="st137" d="M378.7,368.2l2.1,0.7c0.1,1.8,0.5,3.6-0.8,5.2c-0.7,0-0.6-0.7-1-1L378.7,368.2z"/>
		<path class="st138" d="M383,334.1l-0.3,7.8c-0.1,0.3-0.5,0.4-0.7,0.2c-0.1,0-0.1-0.1-0.2-0.2c0.1-3.3,0.2-6.6,0.3-9.8
			C383.8,332.2,383.4,333.1,383,334.1z"/>
		<path class="st139" d="M383,334.1l-0.9-1.9c-0.1-1.4-0.7-2.9,1.3-4.1C384.3,330.1,384.1,332.3,383,334.1z"/>
		<path class="st140" d="M373.1,456.1c0.3,0,0.5,0,0.7,0c0.9,0.9,0.6,1.9,0.3,2.9l-0.4,4c-0.3,0.3-0.8,0.3-1.1,0l0,0
			c-0.3-1.4-0.4-3-1.8-3.9l-0.9-0.3c0-0.3,0-0.5,0-0.8C371.3,458,372.9,458.1,373.1,456.1z"/>
		<path class="st141" d="M374.1,441.1c-0.2-2.1,0.1-4.1,0.9-6c0.3-0.4,0.5-0.4,0.8,0c0.1,2.1,0.5,4.2-0.8,6.1
			C374.7,441.5,374.4,441.5,374.1,441.1z"/>
		<path class="st142" d="M375.9,427.9c-1.4-1.7-1.4-4.1-0.1-5.9c0.5,0.2,0.8,0.5,1,1C376.8,424.6,377.5,426.4,375.9,427.9z"/>
		<path class="st143" d="M376.1,414.1l-0.2-1.9c-0.5-0.6-0.5-1.5,0.1-2l0,0l1-1.1c0.3-0.5,0.5-0.5,0.8,0c0.1,1.8,0.4,3.5-0.8,5.1
			C376.7,414.5,376.4,414.5,376.1,414.1z"/>
		<path class="st144" d="M379,373.1l1,1c-0.1,2.9-0.2,5.9-0.3,8.8c-0.9,0.2-1.3,0.1-0.9-1L379,373.1z"/>
		<path class="st145" d="M372.8,463c0.3,0,0.6,0,0.9,0c0.1,1.3,0.2,2.6,0.3,3.9l-1,2.1c-0.3-0.9,0.1-2.1-0.9-2.8
			c0-1.1-0.1-2.2-0.1-3.3C372.3,462.5,372.6,462.6,372.8,463z"/>
		<path class="st146" d="M381.8,355h-1l0.3-8.9c0.9-0.2,1.4-0.1,0.9,1L381.8,355z"/>
		<path class="st147" d="M382,347.1l-0.9-1c-0.1-1.4-0.5-2.9,0.8-4.1c0.3,0,0.6-0.1,0.9-0.1C382.9,343.7,383.2,345.5,382,347.1z"/>
		<path class="st148" d="M378.8,382l0.9,1c0.2,1.5,0.5,2.9-0.7,4.1c-0.3,0.5-0.6,0.5-0.9,0.1C377.9,385.3,377.6,383.5,378.8,382z"/>
		<path class="st149" d="M378.1,387.1c0.3,0,0.6,0,0.9-0.1c-0.1,3-0.2,5.9-0.3,8.9l-0.9-1C377.9,392.4,378,389.7,378.1,387.1z"/>
		<path class="st150" d="M376.1,414.1c0.3,0,0.6,0,0.9,0c0,3-0.1,5.9-0.2,8.9l-1-1C375.9,419.3,376,416.7,376.1,414.1z"/>
		<path class="st151" d="M374.1,441.1h0.9c-0.1,2.6-0.1,5.3-0.2,8h-0.9L374.1,441.1z"/>
		<path class="st152" d="M377.7,409c-0.3,0-0.5,0-0.8,0c0-2.6,0.1-5.3,0.1-7.9c0.3,0,0.6-0.1,0.9-0.1
			C377.9,403.7,377.8,406.3,377.7,409z"/>
		<path class="st153" d="M375.7,435c-0.3,0-0.5,0-0.8,0c0.2-2-1-4.3,1-6L375.7,435z"/>
		<path class="st154" d="M374.1,459c-0.1-1-0.2-2-0.3-2.9c0.3-0.8,0.6-1.5,1-2.3C374.7,455.5,375.5,457.4,374.1,459z"/>
		<path class="st155" d="M375.9,410.1l-0.1,2h-19.9l-0.3-0.3c-0.5-0.4-1-0.8-0.7-1.5l0.2-0.4L375.9,410.1z"/>
		<path class="st156" d="M354.9,410.3l0.8,1.5l-14.8,0.3l-5.9-0.3l2-1.5C343,409.9,348.9,409.9,354.9,410.3z"/>
		<path class="st157" d="M372.8,463c-0.3,0-0.6-0.1-0.8-0.1c-0.4-1.3-0.8-2.6-1.2-3.8C374.4,458.9,372.3,461.6,372.8,463z"/>
	</g>
</g>
</svg>
